<?xml version="1.0" encoding="iso-8859-1"?>
<!-- Generator: Adobe Illustrator 16.0.0, SVG Export Plug-In . SVG Version: 6.00 Build 0)  -->
<!DOCTYPE svg PUBLIC "-//W3C//DTD SVG 1.1//EN" "http://www.w3.org/Graphics/SVG/1.1/DTD/svg11.dtd">
<svg version="1.1" id="Capa_1" xmlns="http://www.w3.org/2000/svg" xmlns:xlink="http://www.w3.org/1999/xlink" x="0px" y="0px"
	 width="279.37px" height="279.371px" viewBox="0 0 279.37 279.371" style="enable-background:new 0 0 279.37 279.371;"
	 xml:space="preserve">
<g>
	<g>
		<path d="M263.021,156.12c0-19.556-4.578-38.04-12.688-54.472l-21.979,12.686c5.99,12.68,9.355,26.836,9.355,41.786
			c0,18.479-5.126,35.76-14.007,50.509l21.917,12.651C256.649,200.807,263.021,179.212,263.021,156.12z"/>
		<path d="M53.939,108.62c16.245-29.247,46.986-49.291,82.54-50.436v-25.31C91.562,34.024,52.645,59.155,32.02,95.968L53.939,108.62
			z"/>
		<path d="M136.479,279.371v-25.307c-32.033-1.034-60.172-17.419-77.306-42.051l-21.99,12.693
			C58.746,256.89,95.082,278.311,136.479,279.371z"/>
		<path d="M220.189,212.013c-17.139,24.632-45.268,41.017-77.296,42.051v25.307c41.395-1.06,77.723-22.485,99.302-54.664
			L220.189,212.013z"/>
		<path d="M16.35,156.12c0,23.087,6.362,44.683,17.405,63.16l21.919-12.651c-8.889-14.755-14.009-32.03-14.009-50.509
			c0-14.944,3.364-29.106,9.347-41.786l-21.977-12.686C20.93,118.08,16.35,136.563,16.35,156.12z"/>
		<path d="M247.337,95.974c-7.167-12.799-16.585-24.14-27.664-33.6L205.35,83.423c7.984,7.219,14.803,15.72,20.071,25.201
			L247.337,95.974z"/>
		<path d="M185.732,41.784c-13.3-5.363-27.717-8.521-42.844-8.909v25.31c9.832,0.316,19.282,2.128,28.184,5.134L185.732,41.784z"/>
		<path d="M54.306,156.12c0,47.155,38.222,85.377,85.374,85.377c47.149,0,85.382-38.222,85.382-85.377
			c0-24.355-10.257-46.279-26.631-61.831l-4.219,6.199c-6.687,9.832-15.988,15.941-24.247,15.941c-3.217,0-6.249-0.915-8.785-2.631
			c-5.115-3.483-7.626-9.796-6.882-17.323c0.574-5.875,3.116-12.377,7.146-18.289l2.615-3.852c-7.73-2.3-15.894-3.578-24.379-3.578
			C92.527,70.749,54.306,108.97,54.306,156.12z"/>
		<path d="M165.82,109.347c5.432,3.694,14.997-1.208,21.779-11.172l31.962-46.952l3.496,2.381c2.669,1.814,6.323,1.129,8.143-1.55
			c1.824-2.679,1.129-6.318-1.545-8.137l-5.11-3.483l17.128-25.17c3.038-4.462,1.889-10.537-2.578-13.569
			c-4.456-3.035-10.531-1.885-13.568,2.574l-17.129,25.17l-5.12-3.478c-2.674-1.814-6.323-1.124-8.147,1.55
			c-1.824,2.679-1.129,6.323,1.551,8.145l3.501,2.375L168.22,84.989C161.438,94.951,160.383,105.651,165.82,109.347z
			 M203.409,40.234l12.925,8.791l-31.962,46.96c-5.827,8.559-13.3,12.213-16.348,10.135c-3.059-2.085-2.395-10.367,3.428-18.932
			L203.409,40.234z"/>
	</g>
</g>
<g>
</g>
<g>
</g>
<g>
</g>
<g>
</g>
<g>
</g>
<g>
</g>
<g>
</g>
<g>
</g>
<g>
</g>
<g>
</g>
<g>
</g>
<g>
</g>
<g>
</g>
<g>
</g>
<g>
</g>
</svg>
