<?xml version="1.0" encoding="iso-8859-1"?>
<!-- Generator: Adobe Illustrator 16.0.0, SVG Export Plug-In . SVG Version: 6.00 Build 0)  -->
<!DOCTYPE svg PUBLIC "-//W3C//DTD SVG 1.1//EN" "http://www.w3.org/Graphics/SVG/1.1/DTD/svg11.dtd">
<svg version="1.1" id="Capa_1" xmlns="http://www.w3.org/2000/svg" xmlns:xlink="http://www.w3.org/1999/xlink" x="0px" y="0px"
	 width="93.668px" height="93.668px" viewBox="0 0 93.668 93.668" style="enable-background:new 0 0 93.668 93.668;"
	 xml:space="preserve">
<g>
	<path d="M81.221,17.191V0H11.266v51.576H1.764v26.678h9.502v15.414h69.955V43.869h10.683V17.191H81.221z M24.309,10.475h45.055
		v4.742H24.309V10.475z M24.309,22.924h22.527v4.742H24.309V22.924z M24.309,44.463h45.055v4.742H24.309V44.463z M5.75,73.471
		V55.312h35.57v18.158H5.75L5.75,73.471z M69.363,84.576H24.309v-4.742h45.055L69.363,84.576L69.363,84.576z M69.76,60.271H48.418
		v-4.742H69.76V60.271z M87.561,39.305h-35.57v-18.16h35.57V39.305z"/>
</g>
<g>
</g>
<g>
</g>
<g>
</g>
<g>
</g>
<g>
</g>
<g>
</g>
<g>
</g>
<g>
</g>
<g>
</g>
<g>
</g>
<g>
</g>
<g>
</g>
<g>
</g>
<g>
</g>
<g>
</g>
</svg>
