<svg height="512pt" viewBox="0 0 512 512" width="512pt" xmlns="http://www.w3.org/2000/svg"><path d="m238 60h6c5.523438 0 10-4.476562 10-10s-4.476562-10-10-10h-6c-5.523438 0-10 4.476562-10 10s4.476562 10 10 10zm0 0"/><path d="m192 60h6c5.523438 0 10-4.476562 10-10s-4.476562-10-10-10h-6c-5.523438 0-10 4.476562-10 10s4.476562 10 10 10zm0 0"/><path d="m284 60h6c5.523438 0 10-4.476562 10-10s-4.476562-10-10-10h-6c-5.523438 0-10 4.476562-10 10s4.476562 10 10 10zm0 0"/><path d="m376 60h6c5.523438 0 10-4.476562 10-10s-4.476562-10-10-10h-6c-5.523438 0-10 4.476562-10 10s4.476562 10 10 10zm0 0"/><path d="m330 60h6c5.523438 0 10-4.476562 10-10s-4.476562-10-10-10h-6c-5.523438 0-10 4.476562-10 10s4.476562 10 10 10zm0 0"/><path d="m50 444c-4.839844 0-8.871094 3.4375-9.800781 8h-30.199219c-5.523438 0-10 4.476562-10 10s4.476562 10 10 10h30v30c0 5.523438 4.476562 10 10 10s10-4.476562 10-10v-40c0-.339844-.019531-.671875-.050781-1 .035156-.328125.050781-.660156.050781-1v-6c0-5.523438-4.476562-10-10-10zm0 0"/><path d="m146 60h6c5.523438 0 10-4.476562 10-10s-4.476562-10-10-10h-6c-5.523438 0-10 4.476562-10 10s4.476562 10 10 10zm0 0"/><path d="m50 352c-5.523438 0-10 4.476562-10 10v6c0 5.523438 4.476562 10 10 10s10-4.476562 10-10v-6c0-5.523438-4.476562-10-10-10zm0 0"/><path d="m100 60h6c5.523438 0 10-4.476562 10-10s-4.476562-10-10-10h-6c-5.523438 0-10 4.476562-10 10s4.476562 10 10 10zm0 0"/><path d="m462 118c5.523438 0 10-4.476562 10-10v-6c0-5.523438-4.476562-10-10-10s-10 4.476562-10 10v6c0 5.523438 4.476562 10 10 10zm0 0"/><path d="m462 210c5.523438 0 10-4.476562 10-10v-6c0-5.523438-4.476562-10-10-10s-10 4.476562-10 10v6c0 5.523438 4.476562 10 10 10zm0 0"/><path d="m462 440c5.523438 0 10-4.476562 10-10v-6c0-5.523438-4.476562-10-10-10s-10 4.476562-10 10v6c0 5.523438 4.476562 10 10 10zm0 0"/><path d="m462 72c5.523438 0 10-4.476562 10-10v-2h30c5.523438 0 10-4.476562 10-10s-4.476562-10-10-10h-30v-30c0-5.523438-4.476562-10-10-10s-10 4.476562-10 10v40c0 1.046875.160156 2.054688.460938 3-.300782.945312-.460938 1.953125-.460938 3v6c0 5.523438 4.476562 10 10 10zm0 0"/><path d="m462 164c5.523438 0 10-4.476562 10-10v-6c0-5.523438-4.476562-10-10-10s-10 4.476562-10 10v6c0 5.523438 4.476562 10 10 10zm0 0"/><path d="m462 348c5.523438 0 10-4.476562 10-10v-6c0-5.523438-4.476562-10-10-10s-10 4.476562-10 10v6c0 5.523438 4.476562 10 10 10zm0 0"/><path d="m462 394c5.523438 0 10-4.476562 10-10v-6c0-5.523438-4.476562-10-10-10s-10 4.476562-10 10v6c0 5.523438 4.476562 10 10 10zm0 0"/><path d="m462 302c5.523438 0 10-4.476562 10-10v-6c0-5.523438-4.476562-10-10-10s-10 4.476562-10 10v6c0 5.523438 4.476562 10 10 10zm0 0"/><path d="m462 256c5.523438 0 10-4.476562 10-10v-6c0-5.523438-4.476562-10-10-10s-10 4.476562-10 10v6c0 5.523438 4.476562 10 10 10zm0 0"/><path d="m50 398c-5.523438 0-10 4.476562-10 10v6c0 5.523438 4.476562 10 10 10s10-4.476562 10-10v-6c0-5.523438-4.476562-10-10-10zm0 0"/><path d="m140 452h-6c-5.523438 0-10 4.476562-10 10s4.476562 10 10 10h6c5.523438 0 10-4.476562 10-10s-4.476562-10-10-10zm0 0"/><path d="m232 452h-6c-5.523438 0-10 4.476562-10 10s4.476562 10 10 10h6c5.523438 0 10-4.476562 10-10s-4.476562-10-10-10zm0 0"/><path d="m278 452h-6c-5.523438 0-10 4.476562-10 10s4.476562 10 10 10h6c5.523438 0 10-4.476562 10-10s-4.476562-10-10-10zm0 0"/><path d="m186 452h-6c-5.523438 0-10 4.476562-10 10s4.476562 10 10 10h6c5.523438 0 10-4.476562 10-10s-4.476562-10-10-10zm0 0"/><path d="m324 452h-6c-5.523438 0-10 4.476562-10 10s4.476562 10 10 10h6c5.523438 0 10-4.476562 10-10s-4.476562-10-10-10zm0 0"/><path d="m50 306c-5.523438 0-10 4.476562-10 10v6c0 5.523438 4.476562 10 10 10s10-4.476562 10-10v-6c0-5.523438-4.476562-10-10-10zm0 0"/><path d="m370 452h-6c-5.523438 0-10 4.476562-10 10s4.476562 10 10 10h6c5.523438 0 10-4.476562 10-10s-4.476562-10-10-10zm0 0"/><path d="m416 452h-6c-5.523438 0-10 4.476562-10 10s4.476562 10 10 10h6c5.523438 0 10-4.476562 10-10s-4.476562-10-10-10zm0 0"/><path d="m428 40h-6c-5.523438 0-10 4.476562-10 10s4.476562 10 10 10h6c5.523438 0 10-4.476562 10-10s-4.476562-10-10-10zm0 0"/><path d="m94 452h-6c-5.523438 0-10 4.476562-10 10s4.476562 10 10 10h6c5.523438 0 10-4.476562 10-10s-4.476562-10-10-10zm0 0"/><path d="m50 168c-5.523438 0-10 4.476562-10 10v6c0 5.523438 4.476562 10 10 10s10-4.476562 10-10v-6c0-5.523438-4.476562-10-10-10zm0 0"/><path d="m50 260c-5.523438 0-10 4.476562-10 10v6c0 5.523438 4.476562 10 10 10s10-4.476562 10-10v-6c0-5.523438-4.476562-10-10-10zm0 0"/><path d="m50 214c-5.523438 0-10 4.476562-10 10v6c0 5.523438 4.476562 10 10 10s10-4.476562 10-10v-6c0-5.523438-4.476562-10-10-10zm0 0"/><path d="m60 40v-30c0-5.523438-4.476562-10-10-10s-10 4.476562-10 10v30h-30c-5.523438 0-10 4.476562-10 10s4.476562 10 10 10h40c.683594 0 1.355469-.070312 2-.199219.644531.128907 1.316406.199219 2 .199219h6c5.523438 0 10-4.476562 10-10s-4.476562-10-10-10zm0 0"/><path d="m50 76c-5.523438 0-10 4.476562-10 10v6c0 5.523438 4.476562 10 10 10s10-4.476562 10-10v-6c0-5.523438-4.476562-10-10-10zm0 0"/><path d="m50 122c-5.523438 0-10 4.476562-10 10v6c0 5.523438 4.476562 10 10 10s10-4.476562 10-10v-6c0-5.523438-4.476562-10-10-10zm0 0"/><path d="m422 80h-332c-5.523438 0-10 4.476562-10 10v332c0 5.523438 4.476562 10 10 10h212c5.523438 0 10-4.476562 10-10s-4.476562-10-10-10h-202v-312h312v312h-30c-5.523438 0-10 4.476562-10 10s4.476562 10 10 10h40c5.523438 0 10-4.476562 10-10v-332c0-5.523438-4.476562-10-10-10zm0 0"/><path d="m502 452h-46c-5.523438 0-10 4.476562-10 10 0 4.097656 2.46875 7.617188 6 9.160156v30.839844c0 5.523438 4.476562 10 10 10s10-4.476562 10-10v-30h30c5.523438 0 10-4.476562 10-10s-4.476562-10-10-10zm0 0"/><path d="m342 412c-2.628906 0-5.210938 1.070312-7.070312 2.929688-1.859376 1.859374-2.929688 4.441406-2.929688 7.070312s1.070312 5.210938 2.929688 7.070312c1.859374 1.859376 4.441406 2.929688 7.070312 2.929688s5.210938-1.070312 7.070312-2.929688c1.859376-1.859374 2.929688-4.441406 2.929688-7.070312s-1.070312-5.210938-2.929688-7.070312c-1.859374-1.859376-4.441406-2.929688-7.070312-2.929688zm0 0"/></svg>