<svg id="Capa_1" enable-background="new 0 0 60 60" height="512" viewBox="0 0 60 60" width="512" xmlns="http://www.w3.org/2000/svg"><g><circle id="Oval" cx="30" cy="30" fill="#cad9fc" r="29"/><path id="Shape" d="m56 27c.001 11.344-6.614 21.647-16.928 26.369s-22.436 2.995-31.022-4.419c-9.929-11.499-9.3-28.713 1.444-39.456s27.957-11.373 39.456-1.444c4.559 5.259 7.063 11.99 7.05 18.95z" fill="#e8edfc"/><circle cx="16" cy="20" fill="#a4c2f7" r="3"/><circle cx="36" cy="20" fill="#a4c2f7" r="3"/><path d="m22 28h8c1.657 0 3 1.343 3 3v6c0 .552-.448 1-1 1h-12c-.552 0-1-.448-1-1v-6c0-1.657 1.343-3 3-3z" fill="#a4c2f7"/><path d="m33 32v5c-.002.552-.448.998-1 1h-7c-.294-.629-.467-1.307-.51-2-.24-4.8 8.51-4 8.51-4z" fill="#cad9fc"/><path d="m33 32v3c-.053.596-.573 1.04-1.17 1h-7.34c-.24-4.8 8.51-4 8.51-4z" fill="#e8edfc"/><path d="m0 30c.015-4.5 1.037-8.94 2.991-12.994.606-1.265 1.295-2.489 2.062-3.663.398-.576.833-1.128 1.248-1.693.41-.569.86-1.108 1.347-1.613 1.858-2.106 4.014-3.93 6.399-5.414 2.372-1.506 4.948-2.663 7.649-3.435 2.704-.759 5.496-1.159 8.304-1.188v2c-2.621.029-5.227.403-7.751 1.111-2.52.72-4.924 1.799-7.136 3.205-2.227 1.384-4.239 3.087-5.973 5.054-.456.47-.877.973-1.258 1.505-.387.528-.795 1.041-1.167 1.579-.715 1.097-1.357 2.239-1.922 3.42-1.824 3.783-2.778 7.926-2.793 12.126z" fill="#fff"/><path d="m3.955 30c0-15.523 12.197-28.197 27.53-28.963-.487-.024-.977-.037-1.47-.037-16.016 0-29 12.984-29 29s12.984 29 29 29c.493 0 .983-.013 1.47-.037-15.333-.766-27.53-13.44-27.53-28.963z" fill="#fff"/><g fill="#428dff"><path d="m1.456 25.027c-.265-.043-.536.024-.751.185s-.356.401-.39.668l-.155 1.022-.057 1.032-.103 2.066h2l.099-1.929.051-.965.147-.954c.065-.539-.305-1.035-.841-1.125z"/><path d="m30 2v-2c-2.808.029-5.6.429-8.304 1.189-2.701.772-5.277 1.929-7.649 3.435-2.385 1.484-4.541 3.307-6.399 5.414-.487.504-.938 1.043-1.347 1.612-.415.565-.85 1.116-1.248 1.693-.767 1.174-1.456 2.398-2.062 3.663l-.448.932c-.114.246-.122.528-.021.779s.302.449.555.547c.502.19 1.066-.036 1.296-.521l.42-.869c.565-1.181 1.207-2.323 1.922-3.419.372-.538.78-1.052 1.167-1.579.381-.533.802-1.036 1.258-1.506 1.734-1.967 3.746-3.67 5.973-5.054 2.212-1.405 4.616-2.485 7.136-3.205 2.524-.709 5.13-1.082 7.751-1.111z"/><path d="m30 60c-16.561-.019-29.981-13.439-30-30h2c0 15.464 12.536 28 28 28s28-12.536 28-28-12.536-28-28-28v-2c16.569 0 30 13.431 30 30s-13.431 30-30 30z"/><path d="m32 39h-12c-1.104-.001-1.999-.896-2-2v-6c.002-2.208 1.792-3.998 4-4h8c2.208.002 3.998 1.792 4 4v6c-.001 1.104-.896 1.999-2 2zm-10-10c-1.104.001-1.999.896-2 2v6h12v-6c-.001-1.104-.896-1.999-2-2z"/><path d="m32 39h-7c-.398 0-.758-.236-.917-.602-.345-.744-.546-1.546-.592-2.365-.08-1.175.367-2.324 1.22-3.136 2.46-2.359 7.781-1.949 8.38-1.894.515.048.909.48.909.997v5c-.001 1.104-.896 1.999-2 2zm-6.312-2h6.312v-4.05c-1.738-.029-4.639.175-5.905 1.392-.441.413-.665 1.007-.606 1.608.018.358.085.711.199 1.05z"/><path d="m16 24c-2.209 0-4-1.791-4-4s1.791-4 4-4c.517-.004 1.03.1 1.504.306.315.139.537.431.585.772.351-.07.713.055.946.328.624.72.966 1.641.965 2.594-.002 2.208-1.792 3.998-4 4zm0-6c-1.105 0-2 .895-2 2s.895 2 2 2 2-.895 2-2c.001-.472-.168-.928-.476-1.286-.126-.145-.207-.323-.234-.512-.2.039-.408.015-.594-.067-.22-.093-.457-.139-.696-.135z"/><path d="m36 24c-2.208-.002-3.998-1.792-4-4-.001-.953.341-1.874.964-2.594.233-.272.594-.398.946-.328.049-.341.27-.633.585-.772.475-.206.988-.31 1.505-.306 2.209 0 4 1.791 4 4s-1.791 4-4 4zm-1.29-5.798c-.027.19-.108.368-.234.512-.308.358-.477.814-.476 1.286 0 1.105.895 2 2 2s2-.895 2-2-.895-2-2-2c-.239-.004-.476.042-.696.135-.187.082-.394.105-.594.067z"/><path d="m20.999 21c-.208 0-.411-.065-.58-.186l-7-5c-.291-.208-.449-.555-.414-.91.034-.356.256-.666.581-.814s.705-.111.995.096l7 5c.354.253.504.705.371 1.12-.132.414-.518.695-.953.694z"/><path d="m31.001 21c-.435.001-.82-.28-.953-.694s.017-.867.371-1.12l7-5c.291-.208.67-.244.995-.096s.547.458.581.814-.124.703-.414.91l-7 5c-.169.121-.372.186-.58.186z"/><circle cx="2.114" cy="22.098" r="1.001"/></g></g></svg>