<svg height="512" viewBox="0 0 61 55" width="512" xmlns="http://www.w3.org/2000/svg"><g id="Page-1" fill="none" fill-rule="evenodd"><g id="010---Heart" fill-rule="nonzero" transform="translate(0 -1)"><path id="Shape" d="m55 29.4c-.3080911.3668871-.6352068.7173682-.98 1.05-.3301333.36-.6701333.7-1.02 1.02-1.8463338 1.6741957-3.856461 3.1583396-6 4.43-.66.42-1.33.84-2 1.27-2.1229736 1.2986613-4.1303653 2.7774398-6 4.42-.67.61-1.34 1.26-2 1.98-2.4595174 2.7226232-4.483412 5.8090624-6 9.15-.34.72-.67 1.48-1 2.28-.33-.8-.66-1.56-1-2.28-1.516588-3.3409376-3.5404826-6.4273768-6-9.15-.66-.72-1.33-1.37-2-1.98-1.8696347-1.6425602-3.8770264-3.1213387-6-4.42-.67-.43-1.34-.85-2-1.27-2.143539-1.2716604-4.15366619-2.7558043-6-4.43-.35-.32-.69-.66-1.02-1.02-.34479324-.3326318-.67190892-.6831129-.98-1.05-5.33008024-6.1642439-5.33008024-15.3057561 0-21.47.31-.36.64-.71.98-1.05.33-.32.67-.63 1.02-.91 1.75803835-1.47569767 3.8001377-2.57502785 6-3.23.6556652-.20025703 1.323768-.35726119 2-.47 1.9836561-.3582977 4.0151606-.36168354 6-.01.674282.12228194 1.3418301.27915574 2 .47 1.9831593.59842915 3.8403115 1.55411694 5.48 2.82.04.03.07.06.11.09.14.1.28.21.41.32.08.07.17.14.25.21.09.07.17.15.26.23.13.11.26.23.39.36l.1.1.24-.24c.12-.1.23-.21.35-.31.14-.12.27-.24.41-.35 1.7630112-1.46835206 3.8035313-2.56683204 6-3.23.6581699-.19084426 1.325718-.34771806 2-.47 1.9848394-.35168354 4.0163439-.3482977 6 .01.676232.11273881 1.3443348.26974297 2 .47 2.1998623.65497215 4.2419617 1.75430233 6 3.23.35.28.69.59 1.02.91.34.34.67.69.98 1.05 5.3300802 6.1642439 5.3300802 15.3057561 0 21.47z" fill="#e8edfc"/><path id="Shape" d="m55 29.4c-.3080911.3668871-.6352068.7173682-.98 1.05-.3301333.36-.6701333.7-1.02 1.02-1.8463338 1.6741957-3.856461 3.1583396-6 4.43-.66.42-1.33.84-2 1.27-2.1229736 1.2986613-4.1303653 2.7774398-6 4.42-.67.61-1.34 1.26-2 1.98-2.4595174 2.7226232-4.483412 5.8090624-6 9.15-.34.72-.67 1.48-1 2.28-.33-.8-.66-1.56-1-2.28-1.516588-3.3409376-3.5404826-6.4273768-6-9.15-.1-.11-.21-.22-.31-.33.1-.12.2-.25.31-.36 1.7351511-1.9165777 3.7596639-3.5496847 6-4.84.66-.41 1.33-.81 2-1.21 2.092843-1.1736411 4.0980727-2.4970927 6-3.96.708896-.5657839 1.3772049-1.1806282 2-1.84 2.3524687-2.4903537 3.8120711-5.6909276 4.15-9.1.8915179-6.0794108-.5948678-12.26850578-4.15-17.28-.5022601-.70275006-1.0430897-1.37711792-1.62-2.02.0287451-.01141176.0591271-.01816331.09-.02.24-.07.48-.13.72-.18.27-.07.54-.12.81-.17 1.9848394-.35168354 4.0163439-.3482977 6 .01.676232.11273881 1.3443348.26974297 2 .47 2.1998623.65497215 4.2419617 1.75430233 6 3.23.35.28.69.59 1.02.91.34.34.67.69.98 1.05 5.3300802 6.1642439 5.3300802 15.3057561 0 21.47z" fill="#cad9fc"/><circle id="Oval" cx="14" cy="13" fill="#e8edfc" r="7"/><path id="Shape" d="m5.98 30.45c.33006667.36.67006667.7 1.02 1.02 1.84633381 1.6741957 3.856461 3.1583396 6 4.43.66.42 1.33.84 2 1.27 2.1229736 1.2986613 4.1303653 2.7774398 6 4.42.67.61 1.34 1.26 2 1.98 2.4595174 2.7226232 4.483412 5.8090624 6 9.15.34.72.67 1.48 1 2.28.33-.8.66-1.56 1-2.28.1648-.35.3325-.6822.5-1.0162-1.4401398-2.9573271-3.2918609-5.6957869-5.5-8.1338-.66-.72-1.33-1.37-2-1.98-1.8696347-1.6425602-3.8770264-3.1213387-6-4.42-.67-.43-1.34-.85-2-1.27-2.143539-1.2716604-4.1536662-2.7558043-6-4.43-.35-.32-.69-.66-1.02-1.02-.34479324-.3326318-.67190892-.6831129-.98-1.05-5.33008024-6.1642439-5.33008024-15.3057561 0-21.47.31-.36.64-.71.98-1.05.33-.32.67-.63 1.02-.91 1.7580383-1.47569767 3.8001377-2.57502785 6-3.23.6556652-.20025703 1.323768-.35726119 2-.47.5071333-.0918 1.0163333-.1598 1.5276-.204-1.5115412-.13435488-3.0342663-.06574548-4.5276.204-.676232.11273881-1.3443348.26974297-2 .47-2.1998623.65497215-4.24196165 1.75430233-6 3.23-.35.28-.69.59-1.02.91-.34.34-.67.69-.98 1.05-5.33008024 6.1642439-5.33008024 15.3057561 0 21.47.30809108.3668871.63520676.7173682.98 1.05z" fill="#fff"/><path id="Shape" d="m5.7572 8.5831c-4.99945703 5.7918967-4.99920171 14.3728008.0006 20.1644l-1.5156 1.305c-5.64612734-6.5421847-5.64587203-16.2337128.0006-22.7756z" fill="#fff"/><g fill="#428dff"><path id="Shape" d="m2.3638 12.1552c.48972671.2061168 1.05614683.0116573 1.316-.4518.56873889-1.1172712 1.26592103-2.16435325 2.0774-3.12l-1.5144-1.3065c-.91707355 1.07802427-1.70458344 2.25985966-2.3464 3.5213-.13147752.239597-.15569725.5235648-.06669427.7819667s.28295697.4672227.53409427.5750333z"/><path id="Shape" d="m4.2422 30.0525 1.5156-1.305c-2.12832533-2.4950521-3.42265623-5.5934948-3.7016-8.8611l-.0406-.9382c-.02585469-.5312723-.45155359-.9557152-.9829-.98-.2727966-.0104278-.53757896.0934059-.7305687.2864905-.19298975.1930847-.29669323.4579181-.2861313.7307095l.0465 1.06c.31294294 3.690596 1.77468015 7.190309 4.1797 10.0071z"/><path id="Shape" d="m2.4062 15.2236c.04460412-.2494252-.00075424-.5065859-.128-.7257l-.1094-.15c-.0428902-.0505341-.0921701-.095276-.1466-.1331-.0463008-.0427694-.09862431-.0785165-.1553-.1061-.0600953-.0292623-.12210393-.0544199-.1856-.0753-.25901478-.072488-.53610596-.0408348-.7721.0882-.11658014.0700007-.21503746.166471-.2874.2816-.23363108.3479521-.25013254.7981786-.0426 1.1623.07395947.1104185.1716346.2029349.2859.2708.11072507.0716019.23465774.1203249.3645.1433.25944713.0361918.52338224-.019489.7461-.1574.2143453-.1375863.36827037-.3516154.4305-.5986z"/><path id="Shape" d="m30 56c-.4050683-.0000755-.7701471-.2443167-.9248-.6187-.3232-.7836-.6465-1.5288-.9795-2.2348-1.4749796-3.2482551-3.4417651-6.249786-5.8311-8.8989-.1074-.1187-.18-.1993-.26-.2788-.54-.5674-1.0908-1.105-1.6778-1.6392-1.8269042-1.6035848-3.7882179-3.0472278-5.8623-4.315l-2.0019-1.2709c-2.1992146-1.3047433-4.26054546-2.828997-6.1524-4.5494-.3544-.3247-.7187-.6884-1.0673-1.0683-.35609158-.3438998-.69373056-.7064069-1.0115-1.086l1.5372-1.28c.2853488.3401665.58850639.6649877.9082.9731.3505.3794.67.6987.998.999 1.80261125 1.6338022 3.7653341 3.0817224 5.8584 4.3218l2.0068 1.2742c2.1689531 1.3271894 4.219505 2.8388144 6.1289 4.5181.627.5713 1.2139 1.144 1.7461 1.706.1055.1031.2.2076.3028.32 2.5344375 2.8034187 4.6211524 5.9811011 6.1865 9.4209.0322.0678.0645.1357.0957.2036.0322-.0684.0635-.1363.0957-.2041 1.5612516-3.431877 3.6419618-6.6027096 6.1689-9.4009.6114-.6665 1.2862-1.335 2.0616-2.0415 1.9122724-1.682167 3.9660852-3.1962458 6.1386-4.5254l1.9981-1.269c2.0889546-1.2371258 4.0480355-2.6814438 5.8476-4.3111.3428-.3135.6622-.6328.9717-.9707.3339428-.3213507.6507791-.6600171.9492-1.0146 5.043357-5.7782582 5.0483948-14.3921466.0118-20.1763-.295-.3418-.6065-.6733-.93-.9956-.2966-.2875-.6132-.5763-.9392-.8375-1.6558457-1.39640576-3.5825988-2.43526311-5.6592-3.0513-.6152905-.18820862-1.2422717-.33582596-1.8769-.4419-1.8722791-.34092932-3.7903697-.34506072-5.6641-.0122-.5683.1055-1.0693.22-1.5215.3477-.1523.0361-.2509.0605-.3574.0932-1.292422.39162873-2.5311013.94252612-3.6875 1.64-.6890348.42344527-1.348124.89378888-1.9726 1.4077-.0957.0752-.1709.1421-.2481.2095l-.1474.1279c-.1817.1548-.3614.3252-.5313.4956-.1873289.18791615-.4416616.29367826-.707.294h-.001c-.2651122.00002113-.5193944-.10518049-.707-.2925-.2969-.2974-.6133-.5757-.93-.836-.1182-.1-.2354-.1923-.3535-.2768-1.5759591-1.24833045-3.3738797-2.18720949-5.2989-2.7671-.621276-.17983431-1.2513297-.327827-1.8877-.4434-1.8676087-.33064851-3.7790744-.32726269-5.6455.01-.6382581.106333-1.2688473.25445148-1.8877.4434-2.0714292.6131284-3.99393672 1.64738983-5.6471 3.038-.3428.2754-.6592.5645-.9658.8623-.3135.3121-.625.6436-.919.9849l-1.5156-1.3057c.3271-.3794.6738-.748 1.0322-1.1054.4063-.3941.7627-.7119 1.1-.9824 1.8571193-1.55936531 4.0155834-2.71941042 6.3408-3.4078.696067-.21230569 1.4052827-.37882823 2.1231-.4985 2.0948276-.37776293 4.2400899-.38057322 6.3359-.0083.7088323.12874472 1.4106157.29366015 2.1026.4941 2.1541152.64586043 4.166813 1.69288942 5.9322 3.086.124.0864.2861.2138.4365.3413.1231.1016.2412.2016.3555.3008l.0674-.0591c.1045-.0908.206-.18.3134-.2642.6922774-.56858777 1.4228706-1.08885065 2.1866-1.5571 1.2983329-.78405531 2.6892299-1.40341865 4.1406-1.8438.1494-.0458.291-.081.4443-.1171.4668-.1333 1.0264-.2613 1.6641-.3794 2.103799-.37407438 4.2573878-.37068824 6.36.01.7141991.11939899 1.4198098.28545451 2.1123.4971 2.3302003.69098612 4.4928017 1.85524906 6.3526 3.42.32.2564.6767.5742 1.0732.958.3682.3677.7149.7363 1.042 1.1157 5.686498 6.5267683 5.686498 16.2481317 0 22.7749-.3274904.3898216-.6753065.762105-1.042 1.1153-.3076.3384-.6719.7021-1.041 1.04-1.888775 1.7162689-3.9464686 3.2368903-6.1416 4.5386l-1.9929 1.2657c-2.0773796 1.2695224-4.0416592 2.7154564-5.8711 4.3218-.7265.6611-1.3593 1.2881-1.9316 1.9121-2.3900146 2.6493857-4.3574403 5.6512867-5.833 8.9-.333.7065-.6563 1.4517-.9795 2.2353-.1545281.3745402-.5196343.6189576-.9248.6191z"/><path id="Shape" d="m26.9951 12c-.3511678-.0004305-.6763752-.1850296-.8567605-.4863271-.1803853-.3012974-.1895102-.6751335-.0240395-.9848729 3.1262982-5.86895241 9.2360144-9.5337745 15.8857-9.5288.5522847 0 1 .44771525 1 1s-.4477153 1-1 1c-5.9113352-.00374368-11.3424792 3.25415047-14.1221 8.4712-.1738999.3258954-.5134103.5292632-.8828.5288z"/></g></g></g></svg>