<svg id="Capa_1" enable-background="new 0 0 60 60" height="512" viewBox="0 0 60 60" width="512" xmlns="http://www.w3.org/2000/svg"><g><circle id="Oval" cx="30" cy="30" fill="#cad9fc" r="29"/><path id="Shape" d="m56 27c.001 11.344-6.614 21.647-16.928 26.369s-22.436 2.995-31.022-4.419c-9.929-11.499-9.3-28.713 1.444-39.456s27.957-11.373 39.456-1.444c4.559 5.259 7.063 11.99 7.05 18.95z" fill="#e8edfc"/><circle cx="16" cy="20" fill="#a4c2f7" r="3"/><circle cx="36" cy="20" fill="#a4c2f7" r="3"/><path d="m0 30c.015-4.5 1.037-8.94 2.991-12.994.606-1.265 1.295-2.489 2.062-3.663.398-.576.833-1.128 1.248-1.693.41-.569.86-1.108 1.347-1.613 1.858-2.106 4.014-3.93 6.399-5.414 2.372-1.506 4.948-2.663 7.649-3.435 2.704-.759 5.496-1.159 8.304-1.188v2c-2.621.029-5.227.403-7.751 1.111-2.52.72-4.924 1.799-7.136 3.205-2.227 1.384-4.239 3.087-5.973 5.054-.456.47-.877.973-1.258 1.505-.387.528-.794 1.041-1.167 1.579-.715 1.097-1.357 2.239-1.922 3.42-1.824 3.783-2.778 7.926-2.793 12.126z" fill="#fff"/><path d="m3.955 30c0-15.523 12.197-28.197 27.53-28.963-.487-.024-.977-.037-1.47-.037-16.016 0-29 12.984-29 29s12.984 29 29 29c.493 0 .983-.013 1.47-.037-15.333-.766-27.53-13.44-27.53-28.963z" fill="#fff"/><g fill="#428dff"><path d="m1.456 25.027c-.265-.043-.536.024-.751.185s-.356.401-.39.668l-.155 1.022-.057 1.032-.103 2.066h2l.099-1.929.051-.965.147-.954c.065-.539-.305-1.035-.841-1.125z"/><path d="m30 2v-2c-2.808.029-5.6.429-8.304 1.189-2.701.772-5.277 1.929-7.649 3.435-2.385 1.484-4.541 3.307-6.399 5.414-.487.504-.938 1.043-1.347 1.612-.416.565-.85 1.116-1.248 1.693-.767 1.174-1.456 2.398-2.062 3.663l-.448.932c-.114.246-.122.528-.021.779s.302.449.555.547c.502.19 1.066-.036 1.296-.521l.42-.869c.565-1.181 1.207-2.323 1.922-3.419.372-.538.78-1.052 1.167-1.579.381-.533.802-1.036 1.258-1.506 1.734-1.967 3.746-3.67 5.973-5.054 2.212-1.405 4.616-2.485 7.136-3.205 2.524-.709 5.13-1.082 7.751-1.111z"/><path d="m30 60c-16.561-.019-29.981-13.439-30-30h2c0 15.464 12.536 28 28 28s28-12.536 28-28-12.536-28-28-28v-2c16.569 0 30 13.431 30 30s-13.431 30-30 30z"/><path d="m16 24c-2.209 0-4-1.791-4-4s1.791-4 4-4 4 1.791 4 4c-.002 2.208-1.792 3.998-4 4zm0-6c-1.105 0-2 .895-2 2s.895 2 2 2 2-.895 2-2c-.001-1.104-.896-1.999-2-2z"/><path d="m36 24c-2.209 0-4-1.791-4-4s1.791-4 4-4 4 1.791 4 4c-.002 2.208-1.792 3.998-4 4zm0-6c-1.105 0-2 .895-2 2s.895 2 2 2 2-.895 2-2c-.001-1.104-.896-1.999-2-2z"/><path d="m28 39h-5c-1.656-.002-2.998-1.344-3-3 0-.552.448-1 1-1s1 .448 1 1c.001.552.448.999 1 1h5c.552 0 1 .448 1 1s-.448 1-1 1z"/><path d="m35 33h-18c-.552 0-1-.448-1-1s.448-1 1-1h18c.552 0 1 .448 1 1s-.448 1-1 1z"/><circle cx="2.114" cy="22.098" r="1.001"/></g></g></svg>