<svg height="512" viewBox="0 0 60 60" width="512" xmlns="http://www.w3.org/2000/svg"><g id="Page-1" fill="none" fill-rule="evenodd"><g id="011---Star" fill-rule="nonzero"><path id="Shape" d="m58.924 24.0067c-.9521165 2.3081301-2.1582457 4.5030833-3.5961 6.5443-.3770667.5026-.7637333.9859333-1.16 1.45-.3.377-.6187.7346-.9377 1.0923-1.4741055 1.6381919-3.102519 3.1306447-4.8627 4.4567-.4156.3286-.841.6379-1.2857.9376-.0773.058-.1547.1064-.232.1644v.0193c1.3961722 3.7758601 2.1793991 7.7507367 2.32 11.774.0140111 2.5210286-.2452697 5.0361498-.7733 7.5013-.1667075.6211492-.7295689 1.053085-1.3727 1.0534-1.7339853-.140759-3.4481825-.4648002-5.1139-.9667-.3867-.0967-.7444-.203-1.0537-.3h-.01c-.377-.116-.6767-.2224-.87-.3-1.3264239-.5110123-2.620838-1.1015165-3.8762-1.7683h-.01c-.4157-.232-.8217-.464-1.2277-.7057-1.6218962-.9558447-3.1611143-2.0454997-4.6016-3.2576-.087-.0677-.174-.1354-.261-.2127-.087.0773-.174.145-.261.2127-1.4404857 1.2121003-2.9797038 2.3017553-4.6016 3.2576-.406.2417-.812.4737-1.2277.7057h-.0094c-1.2554428.6670328-2.5499577 1.2577711-3.8765 1.769-.1933.0773-.493.1837-.87.3h-.01c-.3093.0966-.667.2029-1.0537.3-1.6656461.5016419-3.3797411.8254481-5.1136.966-.6432538-.0003063-1.2061964-.4323959-1.3728-1.0537-.5280639-2.4651465-.7873783-4.9802678-.7734-7.5013.1406009-4.0232633.9238278-7.9981399 2.32-11.774v-.0193c-.0773-.058-.1547-.1064-.232-.1644-.4447-.3-.87-.609-1.2857-.9376-1.76002805-1.3259807-3.38830647-2.818332-4.8623-4.4564-.319-.3577-.638-.7153-.9377-1.0923-.39633333-.464-.783-.9473333-1.16-1.45-1.43792383-2.0412074-2.64412028-4.2361609-3.5963-6.5443-.20740982-.6195455.00715067-1.3022087.5317-1.6917 1.34630041-.879537 2.77779714-1.6211828 4.2728-2.2137.5124-.2127.9861-.406 1.3824-.551.3867-.145.7058-.261.9087-.319 1.1569417-.341017 2.3316611-.6185311 3.5189-.8313h.01c.5511-.1063 1.1021-.1933 1.6531-.2707 1.3810873-.1859597 2.7730496-.279501 4.1666-.28h.01c.58-.01 1.16.01 1.7594.0386.0967 0 .203 0 .3.01v-.0489c.7971146-3.1922418 2.0227101-6.2618819 3.6434-9.1253.28-.50266667.5797-1.00533333.8991-1.508.058-.1064.1256-.2127.1933-.3191 1.3849181-2.046729 3.0038213-3.92495071 4.8239-5.5966.1893451-.15173082.4167034-.24858208.6573-.28.1276495-.0257321.2591505-.0257321.3868 0 .2405966.03141792.4679549.12826918.6573.28 1.8200967 1.67174275 3.4390006 3.55006592 4.8239 5.5969.0677.1064.1353.2127.1933.3191.3190667.5026.6187667 1.00526667.8991 1.508 1.6210717 2.8633604 2.8470382 5.9330029 3.6445 9.1253v.0483c.0967-.01.203-.01.3-.01.5993-.0289 1.1793-.0483 1.7594-.0386h.01c1.3933829.0053377 2.7850313.0988579 4.1666.28.551.0774 1.1117.1644 1.6531.2707 1.1904039.2127513 2.3683196.4902634 3.5285.8313.2029.058.522.174.9087.319.3963.145.87.3383 1.3824.551 1.4950029.5925172 2.9264996 1.334163 4.2728 2.2137.524423.3897198.738705 1.0725166.531 1.692z" fill="#cad9fc"/><path id="Shape" d="m58.92 24.01c-.3477632.956144-.7724884 1.8825132-1.27 2.77-1.52.57-3.04 1.09-4.55 1.54-19.71 6.06-38.25 3.23-49.85.03-.85835861-1.375121-1.58491834-2.8282405-2.17-4.34-.2101791-.6216476.00378117-1.3079353.53-1.7 1.34604505-.8772669 2.7765062-1.6176227 4.27-2.21.51-.21.99-.4 1.38-.55.39-.14.71-.26.91-.32 1.15675928-.3427617 2.3319667-.6198703 3.52-.83h.01c.55-.11 1.1-.19 1.65-.27.93-.12 1.87-.21 2.81-.25.14-.01.28-.01.43-.01.31-.02.62-.02.93-.02h.01c.58-.01 1.16.01 1.76.04.1 0 .2 0 .3.01v-.05c.7981977-3.1928662 2.0225225-6.2637688 3.64-9.13.28-.5.58-1 .9-1.5.0607738-.11023844.1275405-.21706513.2-.32 1.2270872-1.8053045 2.623397-3.48958228 4.17-5.03.23-.22.45-.41.65-.57.1881513-.15542884.4174822-.25272071.66-.28.1252632-.02666667.2547368-.02666667.38 0 .2425178.02727929.4718487.12457116.66.28 1.8231251 1.66885214 3.4411692 3.54873739 4.82 5.6.0724595.10293487.1392262.20976156.2.32.32.5.62 1 .9 1.5 1.6174775 2.8662312 2.8418023 5.9371338 3.64 9.13v.05c.1-.01.2-.01.3-.01.0331458-.0050001.0668542-.0050001.1 0 .57-.03 1.11-.05 1.66-.04h.01c1.3944307.0076226 2.7870678.101133 4.17.28.55.08 1.11.16 1.65.27 1.1913291.2101111 2.3698656.4872174 3.53.83.2.06.52.18.91.32.39.15.87.34 1.38.55 1.4934938.5923773 2.923955 1.3327331 4.27 2.21.5262188.3920647.7401791 1.0783524.53 1.7z" fill="#cad9fc"/><path id="Shape" d="m55.92 24.01c-.8548582 1.4906069-1.7964776 2.9297487-2.82 4.31-19.71 6.06-38.25 3.23-49.85.03-.85835861-1.375121-1.58491834-2.8282405-2.17-4.34-.2101791-.6216476.00378117-1.3079353.53-1.7 1.34604505-.8772669 2.7765062-1.6176227 4.27-2.21.51-.21.99-.4 1.38-.55.39-.14.71-.26.91-.32 1.15675928-.3427617 2.3319667-.6198703 3.52-.83h.01c.55-.11 1.1-.19 1.65-.27.93-.12 1.87-.21 2.81-.25.0428082.0082948.0864268.0116501.13.01.1 0 .2 0 .3.01v-.03c.31-.02.62-.02.93-.02h.01c.58-.01 1.16.01 1.76.04.1 0 .2 0 .3.01v-.05c.7981977-3.1928662 2.0225225-6.2637688 3.64-9.13.28-.5.58-1 .9-1.5.0607738-.11023844.1275405-.21706513.2-.32 1.2270872-1.8053045 2.623397-3.48958228 4.17-5.03 1.546603 1.54041772 2.9429128 3.2246955 4.17 5.03.0724595.10293487.1392262.20976156.2.32.32.5.62 1 .9 1.5 1.6174775 2.8662312 2.8418023 5.9371338 3.64 9.13v.05c.1-.01.2-.01.3-.01.6-.03 1.18-.05 1.76-.04h.01c.31 0 .62.01.93.02.1002836.0013493.2004247.0080254.3.02.0331458-.0050001.0668542-.0050001.1 0 .95.04 1.9.12 2.84.24.55.08 1.11.16 1.65.27 1.1913291.2101111 2.3698656.4872174 3.53.83.2.06.52.18.91.32.39.15.87.34 1.38.55 1.4934938.5923773 2.923955 1.3327331 4.27 2.21.5262188.3920647.7401791 1.0783524.53 1.7z" fill="#e8edfc"/><path id="Shape" d="m1.4564 24.969.0112.025c.1448.3252.3095.6679.4885 1.02.0228.045.0444.0884.0676.1336.1622.3151.3334.6344.509.9516.0627.1133.1235.2213.1869.3334.155.2743.3106.5434.4646.8034.0218.0367.0441.0776.0658.1139l.0024.0006c.5892.9888 1.1351 1.8248 1.42 2.2.37706667.5026.76373333.9859333 1.16 1.45.3.3769.6187.7346.9377 1.0923 1.47394576 1.6383559 3.10222639 3.1309772 4.8623 4.4572.4158.3287.8411.638 1.2858.9377.0773.058.1547.1064.232.1644v.0193c-1.3962098 3.7758149-2.1794381 7.7506647-2.32 11.7739-.0140727 2.5210699.2452426 5.0362345.7734 7.5014.1666443.6211347.7294993 1.0530559 1.3726 1.0533.7305953-.0318969 1.4574229-.1227253 2.1734-.2716-.2668711-.1898311-.4598236-.466169-.5461-.7821-.5281574-2.4651655-.7874727-4.9803301-.7734-7.5014.1405298-4.0232298.9237243-7.9980795 2.3199-11.7739v-.0193c-.0773-.058-.1547-.1064-.232-.1644-.4447-.3-.87-.609-1.2858-.9377-1.7599974-1.3259437-3.388243-2.8182621-4.8622-4.4563-.319-.3577-.638-.7154-.9377-1.0923-.39633333-.4640667-.783-.9474-1.16-1.45-.2846-.3756-.8305-1.2116-1.42-2.2l-.0023-.001c-.0217-.0363-.044-.0772-.0658-.1139-.154-.26-.31-.5291-.4646-.8034-.0634-.1121-.1242-.22-.1869-.3334-.1756-.3172-.3468-.6365-.509-.9516-.0232-.0452-.0448-.0886-.0676-.1336-.179-.3522-.3437-.6949-.4885-1.02l-.0112-.025c-.1535-.3467-.2856-.6738-.38-.9623-.1507153-.4594774-.07584776-.9631283.202-1.3589.09148403-.1298654.20347922-.2439883.3316-.3379 1.34604505-.8772669 2.7765062-1.6176227 4.27-2.21.1118-.046.2141-.0866.3223-.1305.28113333-.1154.54333333-.2198667.7866-.3134.0893-.0348.1891-.0746.2711-.1061.0827-.03.1472-.0531.2232-.0806.1914-.0707.3553-.1282.4942-.1742.0645-.0219.1424-.05.1926-.0652 1.1567593-.3427617 2.3319667-.6198703 3.52-.83h.01c.0517-.01.1033-.0156.155-.0254.4994-.0933333.9988333-.1751 1.4983-.2453l.0382-.0039c.58-.0743 1.1637-.1308 1.7488-.1767.1877-.0144.3764-.027.5649-.0381.1338-.0079.2673-.021.4011-.027-.5339-.024-1.057-.0433-1.5769-.0346h-.01c-.0265 0-.0523.0026-.0788.0027-.2837 0-.5673 0-.851.0183-.15 0-.29 0-.43.01-.1518.0065-.3031.0217-.4548.0306-.1885.0111-.3772.0237-.5649.0381-.5851.0459-1.1689.1024-1.7488.1767l-.0382.0039c-.4995333.0701333-.9989667.1519-1.4983.2453-.0517.01-.1033.015-.155.0254h-.01c-1.1880333.2101297-2.36324072.4872383-3.52.83-.05.0151-.1281.0433-.1926.0652-.1389.046-.3028.1035-.4942.1742-.076.0275-.1405.0509-.2232.0806-.082.0315-.1818.0713-.2711.1061-.2434.0933333-.5056.1978-.7866.3134-.1082.0439-.2105.0845-.3223.1305-1.4934938.5923773-2.92395495 1.3327331-4.27 2.21-.12825535.0938482-.24038694.2079387-.332.3378-.27784776.3957717-.3527153.8994226-.202 1.3589.0952.2885.2273.6156.3808.9623z" fill="#fff"/><path id="Shape" d="m30.8507 1.3c-.0243-.0194-.0536-.03-.0792-.0472-.1241039-.08753075-.2634064-.15121383-.4108-.1878-.0547044-.01878034-.1105936-.03391352-.1673-.0453-.1276495-.0257321-.2591505-.0257321-.3868 0-.0567064.01138648-.1125956.02651966-.1673.0453-.1473936.03658617-.2866961.10026925-.4108.1878-.0256.0177-.0549.0278-.0792.0472-.3993683.32643227-.7774095.67811945-1.1318 1.0529-.0469.0482-.0914.09-.1387.1395-.1325.1388-.2657.286-.4.4335-.1.1093-.1984.2156-.2983.3281-.104.1174-.2049.2345-.308.354-.1416.1638-.28.3255-.4181.49-.0653.0782-.1278.1537-.1919.2316-.1785.2164-.3488.4265-.514.6347-.0292.0368-.0577.0725-.0864.1089-.1781.2258-.3428.4391-.4966.643-.0269.0354-.0541.0711-.08.1057-.1073.1434-.2009.272-.2917.3983-.07.096-.1386.1908-.1972.2747l-.0088.013c-.1027.1474-.1992.2878-.2622.3888-.0676.1063-.1353.2127-.1933.319-.029.0458-.0531.0914-.0817.1371-.2884.4558-.5652.9115-.82 1.3673-.5924 1.0522-1.11 2.1271-1.5916 3.2189-.8480777 1.9089395-1.5338358 3.8859298-2.05 5.91v.021h.001c.2837-.0183.5673-.0182.851-.0183.0265 0 .0523-.0027.0788-.0027h.01c.58-.01 1.16.01 1.7594.0386.0967 0 .203 0 .3.01v-.0486c.5161642-2.0240702 1.2019223-4.0010605 2.05-5.91.4821-1.0918.9992-2.1667 1.5916-3.2189.2552-.4558.532-.9115.82-1.3673.0286-.0457.0527-.0913.0817-.1371.058-.1063.1257-.2127.1933-.319.063-.101.16-.2414.2622-.3888l.0088-.013c.0586-.0839.1277-.1787.1972-.2747.0908-.1263.1844-.2549.2917-.3983.026-.0346.0532-.07.08-.1057.1538-.2039.3185-.4172.4966-.643.0287-.0364.0572-.0721.0864-.1089.1652-.2082.3355-.4183.514-.6347.0641-.0779.1266-.1534.1919-.2316.138-.1648.2765-.3265.4181-.49.1031-.1195.204-.2366.308-.354.1-.1125.1984-.2188.2983-.3281.1344-.1475.2676-.2947.4-.4335.0473-.05.0918-.0913.1387-.1395.163-.1675.327-.3379.4825-.4853-.2288-.2176-.4475-.4101-.6495-.5676z" fill="#fff"/><path id="Shape" d="m19.5346 18.9c-2.1001767-.1182689-4.2068679-.0333074-6.2907.2537-1.04.1466667-2.0725333.3433333-3.0976.59-.5124.12-1.0225.2575-1.5274.4006-.46.1255-.9517.32-1.4427.5091-1.73862062.6457292-3.405139 1.4710621-4.9725 2.4626l-1.1909-1.6068c1.70627473-1.1003901 3.52743465-2.0114731 5.4312-2.7171 4.2256506-1.5221839 8.7177247-2.1650609 13.2007-1.8892z" fill="#fff"/><g fill="#428dff"><path id="Shape" d="m14.595 17.99c.0506183.5406992.5168973.9463716 1.0594.9217 1.2920016-.0794123 2.5875356-.0833857 3.88-.0119l.11-1.9969c-1.3707447-.0758642-2.7447497-.0716236-4.115.0127-.2680855.0140677-.5189642.1364037-.6951331.3389678s-.2625222.4679871-.2392669.7354322z"/><path id="Shape" d="m1.0128 21.5092 1.1909 1.6068c1.56735253-.9916071 3.23387119-1.8170072 4.9725-2.4628l.9-.3373c.49207584-.192333.76175501-.7230461.627-1.2339-.07220191-.2652777-.2531638-.4876805-.49821916-.612313-.24505537-.1246325-.53137272-.1398829-.78828084-.041987-.3338.1172-.6538.2387-.9727.3644-1.90376535.7056269-3.72492527 1.6167099-5.4312 2.7171z"/><path id="Shape" d="m11.8083 19.3886c.2538303-.0509809.4791708-.1956386.6312-.4052l.0922-.1673c.0282623-.0608751.0484337-.1251882.06-.1913.0191746-.0604424.0292844-.1233931.03-.1868.0008768-.0668391-.0027983-.1336603-.011-.2-.0437881-.2623648-.1878724-.4974251-.4018-.6555-.4696984-.3062315-1.0971274-.1893838-1.4251.2654-.0701498.1122885-.1177057.2371908-.14.3677-.0253888.128404-.0249129.2605822.0014.3888.0601137.2566047.2124809.482148.4281.6337.217488.1404892.479797.1942001.735.1505z"/><path id="Shape" d="m47.0254 60c-2.5307039-.2396254-5.0223744-.7893109-7.419-1.6367-3.4813425-1.3296711-6.725204-3.2126263-9.6064-5.5762-2.8833355 2.3651557-6.1297338 4.2491121-9.6138 5.5791-2.3895139.8443009-4.8733789 1.3929797-7.3962 1.6338-1.0925174-.0015883-2.0515747-.7273294-2.35-1.7783-.559897-2.5672964-.82948892-5.1893859-.8037-7.8169.13065902-3.8745897.8471092-7.7070754 2.125-11.3672-3.08783259-2.1927578-5.81546178-4.8528786-8.0849-7.8848-1.50814953-2.1266739-2.7661194-4.4201117-3.749-6.8349-.34019284-1.0332194.02041729-2.1681376.8946-2.8155.28928239-.2120473.66997382-.252925.99768057-.1071284.32770675.1457967.55223141.4559347.58841326.812781.03618186.3568462-.12152134.7057397-.41329383.9143474-.17128849.1347857-.23863438.363136-.1679.5693.91185149 2.2060287 2.06692624 4.303463 3.4438 6.2534 2.28646385 3.0704516 5.0742335 5.7334392 8.2461 7.877.2737796.1860289.4376276.4955985.4375.8266.0000999.1238201-.0205181.2467844-.061.3638-1.36327 3.6780197-2.1259478 7.5514087-2.2588 11.4717-.018416 2.4132939.2253468 4.8214495.727 7.1821.0453541.1925082.215359.3298373.4131.3337 2.2780712-.2355204 4.5206183-.7376568 6.6816-1.4961 3.5414471-1.3523994 6.8218973-3.3079684 9.6959-5.78.3736213-.3174078.9221787-.3174078 1.2958 0 2.8718517 2.4704146 6.1497682 4.424917 9.6885 5.7769 2.1679778.7616001 4.4182252 1.2648102 6.7041 1.4992.1888997-.0081571.3498812-.1397101.3955-.3232.5032661-2.3634538.7480381-4.7746256.73-7.191-.1327149-3.9207621-.8953946-7.7946337-2.2588-11.4731-.0404334-.1101101-.0610845-.2265008-.061-.3438-.0004996-.3365503.1626843-.6523252.4375-.8466 3.1710866-2.1429951 5.9583215-4.805111 8.2446-7.8745 1.376279-1.949032 2.5311983-4.0452874 3.4434-6.25.0732367-.2075075.0065382-.4386219-.166-.5752-1.9682858-1.2170443-4.0710202-2.201817-6.2661-2.9346-3.5885431-1.0695892-7.3360678-1.5054462-11.0743-1.288-.5365257.0299172-1.0006688-.369775-1.0507-.9048-.944721-3.7448007-2.4915354-7.3112548-4.58-10.56-1.3286712-1.95013521-2.8718847-3.74508906-4.6007-5.3512-.137313-.11376473-.3365395-.11233023-.4722.0034-1.7252974 1.60380369-3.2658062 3.39554079-4.5928 5.3418-2.1037614 3.2721451-3.6584315 6.8662115-4.6025 10.64-.0973516.4640293-.5025458.7991465-.9766.8077-.2625986.0053627-.5163594-.0949098-.7043629-.278326-.1880034-.1834161-.2945126-.4346231-.2956371-.697274v-.0493c-.000027-.0831609.0103195-.1660004.0308-.2466.9940561-3.988361 2.6349283-7.78688534 4.8574-11.2446 1.4489652-2.14144891 3.1448937-4.10495063 5.0528-5.85.8633659-.66840171 2.0690873-.66979893 2.934-.0034 1.9113881 1.74735841 3.6099905 3.71407997 5.0606 5.8594 2.0830794 3.2398935 3.654421 6.7814582 4.6587 10.5 3.6913127-.1253827 7.3785561.348153 10.9184 1.4022 2.4162666.8003366 4.7276027 1.8881348 6.8843 3.24.8702758.6496799 1.2264315 1.7838334.8838 2.8144-.98317 2.4135163-2.2409519 4.7058101-3.7485 6.8316-2.2693011 3.0308476-4.9964288 5.6900965-8.0835 7.8823 1.2780176 3.6605736 1.9944694 7.49354 2.125 11.3686.0255612 2.6305446-.2448725 5.2556164-.8062 7.8257-.2983036 1.0419746-1.2481833 1.7622864-2.332 1.7684z"/></g><path id="Shape" d="m24.001 19c-.3081579.0003386-.5992613-.1414175-.7890183-.3842213-.189757-.2428037-.2569718-.5595342-.1821817-.8584787.9894318-3.2461422 2.370533-6.3596981 4.1128-9.2719.2883935-.46364956.8953837-.61025087 1.3636047-.32934012s.6245508.88546847.3511953 1.35814012c-1.6354497 2.7460328-2.9403164 5.6758906-3.8874 8.7285-.1114419.4445653-.5106801.7565809-.969.7573z" fill="#b0d3f0"/><circle id="Oval" cx="30" cy="6" fill="#428dff" r="1"/><path id="Shape" d="m24.001 19c-.3081579.0003386-.5992613-.1414175-.7890183-.3842213-.189757-.2428037-.2569718-.5595342-.1821817-.8584787.9894318-3.2461422 2.370533-6.3596981 4.1128-9.2719.2883935-.46364956.8953837-.61025087 1.3636047-.32934012s.6245508.88546847.3511953 1.35814012c-1.6354497 2.7460328-2.9403164 5.6758906-3.8874 8.7285-.1114419.4445653-.5106801.7565809-.969.7573z" fill="#428dff"/></g></g></svg>