<svg id="Capa_1" enable-background="new 0 0 60 60" height="512" viewBox="0 0 60 60" width="512" xmlns="http://www.w3.org/2000/svg"><g><path id="Shape" d="m59 30c.002 13.638-9.498 25.435-22.823 28.342s-26.875-3.863-32.552-16.264-1.949-27.081 8.957-35.269 26.045-7.671 36.368 1.241c6.381 5.508 10.05 13.52 10.05 21.95z" fill="#cad9fc"/><path d="m56 27c.001 11.344-6.614 21.647-16.928 26.369s-22.436 2.995-31.022-4.419c-9.929-11.499-9.3-28.713 1.444-39.456s27.957-11.373 39.456-1.444c4.559 5.259 7.063 11.99 7.05 18.95z" fill="#e8edfc"/><path d="m37.949 30c.283.001.553.121.743.331s.284.49.258.772c-.571 6.173-5.75 10.895-11.95 10.895s-11.379-4.722-11.95-10.896c-.026-.282.067-.562.258-.772s.46-.33.743-.331h21.898z" fill="#a4c2f7"/><path d="m38.04 34.73c-1.899 4.41-6.239 7.268-11.04 7.27-.947.003-1.89-.108-2.81-.33-.332-.676-.532-1.409-.59-2.16 5.061 1.492 10.503-.496 13.41-4.9.37.04.71.08 1.03.12z" fill="#cad9fc"/><path d="m37.01 34.61c-2.907 4.404-8.349 6.392-13.41 4.9-.078-1.32.435-2.606 1.4-3.51 2.04-2.04 8.25-1.77 12.01-1.39z" fill="#e8edfc"/><path d="m30 59c.514 0 1.024-.014 1.532-.041-15.415-.781-27.517-13.5-27.53-28.935-.015-15.435 12.064-28.175 27.478-28.984-.49-.025-.983-.04-1.48-.04-16.016 0-29 12.984-29 29s12.984 29 29 29z" fill="#fff"/><path d="m0 30c.015-4.5 1.036-8.94 2.989-12.994.606-1.265 1.295-2.489 2.062-3.664.398-.577.833-1.128 1.248-1.693.41-.569.86-1.108 1.347-1.613 1.858-2.106 4.014-3.93 6.399-5.414 2.372-1.506 4.948-2.662 7.65-3.434 2.705-.759 5.497-1.159 8.305-1.188v2c-2.621.029-5.227.402-7.751 1.111-2.521.72-4.924 1.799-7.137 3.204-2.227 1.384-4.24 3.087-5.974 5.054-.456.47-.877.973-1.258 1.505-.387.528-.795 1.041-1.167 1.579-.715 1.097-1.357 2.239-1.923 3.42-1.822 3.785-2.775 7.928-2.79 12.127z" fill="#fff"/><g fill="#428dff"><path d="m1.456 25.027c-.265-.043-.536.024-.751.185s-.356.401-.39.668l-.155 1.022-.057 1.032-.103 2.066h2l.099-1.929.051-.964.147-.954c.065-.54-.305-1.036-.841-1.126z"/><path d="m30 2v-2c-2.808.029-5.6.429-8.304 1.189-2.702.772-5.278 1.928-7.65 3.434-2.385 1.483-4.541 3.307-6.399 5.414-.488.504-.938 1.043-1.347 1.612-.416.565-.851 1.116-1.248 1.693-.767 1.174-1.456 2.398-2.062 3.664l-.448.932c-.114.246-.122.528-.02.779.101.251.302.449.555.547.502.19 1.066-.036 1.296-.521l.419-.869c.565-1.181 1.207-2.323 1.923-3.42.372-.538.78-1.052 1.167-1.579.381-.533.801-1.036 1.257-1.505 1.734-1.967 3.746-3.67 5.974-5.054 2.213-1.405 4.616-2.485 7.137-3.204 2.523-.71 5.129-1.083 7.75-1.112z"/><path d="m30 60c-16.568-.002-29.998-13.432-30-30 0-.552.448-1 1-1s1 .448 1 1c.001 15.463 12.536 27.998 27.999 27.997 15.463 0 27.998-12.535 27.998-27.998.001-15.463-12.534-27.998-27.997-27.999-.552 0-1-.448-1-1s.448-1 1-1c16.569 0 30 13.431 30 30s-13.431 30-30 30z"/><path d="m27 43c-6.731.034-12.362-5.101-12.946-11.807-.052-.562.135-1.12.515-1.537s.918-.655 1.482-.657h21.898c.564.001 1.102.239 1.482.657.38.417.567.975.515 1.537-.584 6.706-6.215 11.841-12.946 11.807zm-10.949-12c.516 5.662 5.261 9.997 10.946 10s10.435-4.327 10.957-9.988l-.005-.012z"/><path d="m27 43c-1.027.003-2.05-.118-3.048-.359-.292-.071-.537-.271-.666-.543-.388-.791-.62-1.649-.684-2.528-.097-1.606.522-3.172 1.691-4.277 1.792-1.792 6.105-2.354 12.817-1.678.383.042.729.082 1.054.123.312.039.588.223.744.495.156.273.175.603.051.892-2.054 4.78-6.757 7.876-11.959 7.875zm-2.094-2.197c4.583.877 9.222-1.22 11.593-5.239-5.53-.52-9.551-.098-10.792 1.143-.763.704-1.17 1.713-1.108 2.749.033.462.137.916.307 1.347z"/><path d="m11 23c-.425 0-.803-.268-.944-.669s-.013-.847.319-1.112c1.928-1.596 4.311-2.543 6.808-2.706-1.024-.351-2.1-.525-3.183-.513-.552 0-1-.448-1-1s.448-1 1-1c5.472 0 7.738 3.305 7.832 3.445.243.364.221.845-.055 1.185s-.742.461-1.148.298c-3.12-.984-6.526-.283-9.004 1.852-.177.143-.398.22-.625.22z"/><path d="m43 23c-.227 0-.447-.077-.624-.219-2.479-2.137-5.888-2.837-9.009-1.851-.407.159-.869.036-1.144-.303-.274-.34-.297-.818-.056-1.182.095-.14 2.361-3.445 7.833-3.445.552 0 1 .448 1 1s-.448 1-1 1c-1.082-.012-2.159.162-3.183.514 2.497.163 4.879 1.109 6.807 2.705.332.265.459.711.319 1.112s-.518.669-.943.669z"/><circle cx="2.113" cy="22.098" r=".992"/></g></g></svg>