<svg id="Capa_1" enable-background="new 0 0 60 60" height="512" viewBox="0 0 60 60" width="512" xmlns="http://www.w3.org/2000/svg"><g><circle id="Oval" cx="30" cy="30" fill="#cad9fc" r="29"/><path id="Shape" d="m56 27c.001 11.344-6.614 21.647-16.928 26.369s-22.436 2.995-31.022-4.419c-9.929-11.499-9.3-28.713 1.444-39.456s27.957-11.373 39.456-1.444c4.559 5.259 7.063 11.99 7.05 18.95z" fill="#e8edfc"/><path d="m23 28h6c3.866 0 7 3.134 7 7v4c0 .552-.448 1-1 1h-18c-.552 0-1-.448-1-1v-4c0-3.866 3.134-7 7-7z" fill="#a4c2f7"/><path d="m36 35v4c-.002.552-.448.998-1 1h-12c-.122-.801-.143-1.614-.06-2.42v-.02c.027-1.463.805-2.808 2.06-3.56 3.51-1.75 9.33-1.2 10.7-1.04.198.662.299 1.349.3 2.04z" fill="#cad9fc"/><path d="m36 35v2c-.002.552-.448.998-1 1h-12s-.03-.16-.06-.42v-.02c.027-1.463.805-2.808 2.06-3.56 3.51-1.75 9.33-1.2 10.7-1.04.198.662.299 1.349.3 2.04z" fill="#e8edfc"/><path d="m50.764 33.598c.619 2.642-.981 5.295-3.606 5.981s-5.318-.847-6.07-3.454c-.68-2.605 2.785-9.125 2.785-9.125s6.211 3.993 6.891 6.598z" fill="#e8edfc"/><path d="m49.287 32.183c.486 2.075-.771 4.159-2.833 4.698s-4.177-.665-4.768-2.713c-.535-2.046 2.187-7.168 2.187-7.168s4.879 3.137 5.414 5.183z" fill="#fff"/><path d="m1.236 33.598c-.655 2.647.959 5.324 3.606 5.98 2.63.722 5.347-.824 6.07-3.453.68-2.605-2.785-9.125-2.785-9.125s-6.211 3.993-6.891 6.598z" fill="#e8edfc"/><path d="m2.713 32.183c-.515 2.08.753 4.183 2.833 4.698 2.066.567 4.2-.647 4.768-2.713.535-2.046-2.187-7.168-2.187-7.168s-4.879 3.137-5.414 5.183z" fill="#fff"/><circle cx="16" cy="20" fill="#a4c2f7" r="3"/><circle cx="36" cy="20" fill="#a4c2f7" r="3"/><path d="m1.067 31.88c.02.321.042.641.073.959.017.175.04.348.06.522.01.09.02.18.031.27-.342 1.379-.056 2.838.783 3.985.066.243.138.484.21.725.045.151.09.302.137.451.096.304.2.604.306.903.045.127.088.255.135.382.126.339.259.674.397 1.007.034.083.066.167.101.25.535 1.26 1.16 2.481 1.869 3.652.056.092.115.182.172.274.176.284.355.566.541.843.089.132.181.262.272.393.159.229.319.457.484.681.116.157.235.312.354.467.144.187.288.372.436.555.145.179.292.357.441.532.061.072.12.148.182.219l.029.024c5.499 6.373 13.502 10.033 21.92 10.026.503 0 1.003-.013 1.5-.038-7.885-.403-15.262-4.011-20.421-9.988l-.029-.024c-.062-.072-.12-.147-.182-.219-.149-.176-.296-.353-.441-.532-.148-.183-.293-.369-.436-.555-.119-.155-.238-.309-.354-.467-.165-.224-.325-.452-.484-.681-.091-.131-.183-.261-.272-.393-.186-.277-.364-.559-.541-.843-.057-.092-.116-.182-.172-.274-.708-1.172-1.333-2.392-1.868-3.652-.035-.083-.067-.167-.101-.25-.138-.333-.272-.668-.397-1.007-.047-.126-.09-.255-.135-.382-.106-.299-.209-.599-.306-.903-.048-.15-.092-.3-.137-.451-.072-.241-.144-.481-.21-.725-.838-1.147-1.125-2.606-.783-3.985-.011-.09-.021-.18-.031-.27-.02-.174-.043-.347-.06-.522-.031-.318-.052-.639-.073-.959-.01-.152-.024-.302-.031-.454-.023-.472-.036-.948-.036-1.426-.002-15.434 12.086-28.166 27.5-28.962-.024-.001-.049-.001-.074-.002-.472-.023-.948-.036-1.426-.036-7.692-.001-15.069 3.054-20.508 8.492s-8.493 12.816-8.492 20.508c0 .478.013.954.036 1.426.007.152.022.302.031.454z" fill="#fff"/><path d="m0 30c.015-4.5 1.036-8.94 2.989-12.994.606-1.265 1.295-2.489 2.062-3.664.398-.577.833-1.128 1.248-1.693.41-.569.86-1.108 1.347-1.613 1.858-2.106 4.014-3.93 6.399-5.414 2.372-1.506 4.948-2.662 7.65-3.434 2.705-.759 5.497-1.159 8.305-1.188v2c-2.621.029-5.227.402-7.751 1.111-2.521.72-4.924 1.799-7.137 3.204-2.227 1.384-4.24 3.087-5.974 5.054-.457.47-.877.973-1.258 1.505-.387.528-.795 1.041-1.167 1.579-.715 1.097-1.357 2.239-1.923 3.42-1.822 3.785-2.775 7.928-2.79 12.127z" fill="#fff"/><g fill="#428dff"><path d="m1.456 25.027c-.265-.043-.536.024-.751.185s-.356.401-.39.668l-.155 1.022-.057 1.032-.103 2.066h2l.099-1.929.05-.964.147-.954c.066-.54-.304-1.036-.84-1.126z"/><path d="m30 2v-2c-2.808.029-5.6.429-8.304 1.189-2.702.772-5.278 1.928-7.65 3.434-2.385 1.484-4.541 3.307-6.399 5.414-.488.504-.938 1.043-1.347 1.612-.416.565-.851 1.116-1.248 1.693-.767 1.174-1.456 2.398-2.062 3.664l-.448.932c-.114.246-.122.528-.02.779.101.251.302.449.555.547.502.19 1.066-.036 1.296-.521l.419-.869c.565-1.181 1.207-2.323 1.923-3.42.372-.538.78-1.052 1.167-1.579.381-.533.801-1.036 1.258-1.505 1.734-1.967 3.746-3.67 5.974-5.054 2.213-1.405 4.616-2.485 7.137-3.204 2.522-.71 5.128-1.083 7.749-1.112z"/><path d="m1.23 34.63c-.503 0-.928-.375-.991-.875-.158-1.245-.238-2.499-.239-3.755 0-.552.448-1 1-1s1 .448 1 1c.001 1.172.075 2.342.223 3.504.036.285-.052.572-.242.787s-.464.339-.751.339z"/><path d="m30 60c-13.505-.015-25.342-9.037-28.935-22.056-.094-.345.003-.714.254-.968s.619-.354.965-.264c.346.091.617.359.711.704 3.838 13.98 17.712 22.718 31.978 20.142s24.208-15.614 22.915-30.053c-1.292-14.439-13.391-25.504-27.888-25.505-.552 0-1-.448-1-1s.448-1 1-1c16.569 0 30 13.431 30 30s-13.431 30-30 30z"/><path d="m35 41h-18c-1.104-.001-1.999-.896-2-2v-4c.005-4.416 3.584-7.995 8-8h6c4.416.005 7.995 3.584 8 8v4c-.001 1.104-.896 1.999-2 2zm-12-12c-3.312.004-5.996 2.688-6 6v4h18v-4c-.004-3.312-2.688-5.996-6-6z"/><path d="m35 41h-12c-.484 0-.899-.347-.984-.824-.137-.881-.161-1.776-.073-2.664.001-.02.002-.041.004-.057.038-1.809 1.03-3.463 2.606-4.35 3.701-1.846 9.557-1.339 11.264-1.139.398.046.729.326.843.709.224.755.339 1.538.34 2.325v4c-.001 1.104-.896 1.999-2 2zm-11.098-2h11.098v-4c0-.375-.035-.749-.104-1.117-1.934-.173-6.604-.406-9.449 1.012-.946.586-1.517 1.622-1.508 2.734-.001.021-.002.042-.004.058-.046.436-.056.875-.033 1.313z"/><path d="m45.854 40.747c-1.042 0-2.067-.271-2.973-.788-1.369-.769-2.366-2.062-2.761-3.582-.757-2.899 2.495-9.144 2.869-9.847.131-.247.36-.428.63-.499s.558-.025.794.127c.669.43 6.561 4.288 7.317 7.186.398 1.519.161 3.134-.657 4.474-.816 1.354-2.132 2.334-3.663 2.727-.507.134-1.03.202-1.556.202zm-1.6-12.289c-1.197 2.463-2.567 5.998-2.197 7.414.26.997.915 1.845 1.815 2.349 1.918 1.075 4.343.442 5.49-1.434.538-.879.695-1.939.435-2.936v-.001c-.371-1.418-3.294-3.83-5.543-5.392z"/><path d="m6.146 40.747c-.525-.001-1.048-.068-1.557-.201-1.531-.393-2.847-1.372-3.663-2.727-.818-1.34-1.055-2.955-.657-4.474.757-2.899 6.648-6.756 7.317-7.186.235-.151.523-.197.794-.127.271.071.499.252.63.499.374.703 3.626 6.948 2.869 9.847-.395 1.52-1.392 2.813-2.761 3.582-.905.516-1.93.787-2.972.787zm1.6-12.289c-2.249 1.563-5.173 3.976-5.542 5.392-.261.997-.104 2.057.435 2.936 1.147 1.876 3.572 2.509 5.49 1.434.899-.503 1.554-1.351 1.814-2.348.371-1.418-.999-4.952-2.197-7.414z"/><path d="m16 24c-2.208-.002-3.998-1.792-4-4-.001-.953.341-1.874.964-2.594l1.512 1.309c-.308.357-.477.813-.476 1.285 0 1.105.895 2 2 2s2-.895 2-2-.895-2-2-2c-.239-.004-.475.042-.695.135l-.809-1.829c.474-.206.987-.311 1.504-.306 2.209 0 4 1.791 4 4s-1.791 4-4 4z"/><path d="m36 24c-2.209 0-4-1.791-4-4s1.791-4 4-4c.517-.005 1.03.1 1.504.306l-.809 1.829c-.22-.093-.456-.139-.695-.135-1.105 0-2 .895-2 2s.895 2 2 2 2-.895 2-2c.001-.472-.168-.928-.476-1.286l1.512-1.309c.623.721.965 1.642.964 2.595-.002 2.208-1.792 3.998-4 4z"/><path d="m11.001 21c-.435.001-.82-.28-.953-.694s.017-.867.371-1.12l7-5c.45-.321 1.074-.217 1.395.233s.217 1.074-.233 1.395l-7 5c-.169.121-.372.186-.58.186z"/><path d="m40.999 21c-.208 0-.411-.065-.58-.186l-7-5c-.45-.321-.554-.946-.233-1.395.321-.45.946-.554 1.395-.233l7 5c.354.253.504.705.371 1.12-.132.414-.518.695-.953.694z"/><circle cx="2.113" cy="22.098" r="1.001"/></g></g></svg>