<svg height="512pt" viewBox="0 0 512 512" width="512pt" xmlns="http://www.w3.org/2000/svg"><path d="m240 0h32v144h-32zm0 0" fill="#4dd0e1"/><path d="m240 368h32v144h-32zm0 0" fill="#4dd0e1"/><g fill="#42a5f5"><path d="m128 192h384v32h-384zm0 0"/><path d="m0 192h32v32h-32zm0 0"/><path d="m64 192h32v32h-32zm0 0"/><path d="m0 288h384v32h-384zm0 0"/><path d="m480 288h32v32h-32zm0 0"/><path d="m416 288h32v32h-32zm0 0"/></g><path d="m256.527344 164.558594-76.925782-62.046875c-6.882812-5.566407-7.96875-15.632813-2.417968-22.511719 5.550781-6.878906 15.617187-7.953125 22.496094-2.398438l56.847656 45.855469 56.847656-45.855469c6.882812-5.554687 16.945312-4.464843 22.496094 2.398438 5.554687 6.878906 4.464844 16.960938-2.414063 22.496094zm0 0" fill="#80deea"/><path d="m313.375 434.414062-56.847656-45.855468-56.847656 45.855468c-6.878907 5.554688-16.945313 4.464844-22.496094-2.398437-5.550782-6.878906-4.464844-16.960937 2.402344-22.496094l76.925781-62.046875 76.945312 62.046875c6.878907 5.550781 7.949219 15.617188 2.414063 22.496094-5.535156 6.863281-15.613282 7.9375-22.496094 2.398437zm0 0" fill="#80deea"/></svg>