<?xml version="1.0" encoding="iso-8859-1"?>
<!-- Generator: Adobe Illustrator 19.0.0, SVG Export Plug-In . SVG Version: 6.00 Build 0)  -->
<svg version="1.1" id="Capa_1" xmlns="http://www.w3.org/2000/svg" xmlns:xlink="http://www.w3.org/1999/xlink" x="0px" y="0px"
	 viewBox="0 0 509.867 509.867" style="enable-background:new 0 0 509.867 509.867;" xml:space="preserve">
<g>
	<g>
		<path d="M266.667,6.4c-8.533-8.533-21.333-8.533-29.867,0c-10.667,10.667-49.067,49.067-49.067,78.933c0,36.267,27.733,64,64,64
			s64-27.733,64-64C315.733,55.467,277.333,17.067,266.667,6.4z M273.067,106.667c-12.8,0-21.333-8.533-21.333-21.333
			c0-12.8,8.533-21.333,21.333-21.333c12.8,0,21.333,8.533,21.333,21.333C294.4,98.133,285.867,106.667,273.067,106.667z"/>
	</g>
</g>
<g>
	<g>
		<path d="M450.133,241.067L396.8,300.8c-23.467-78.933-104.533-125.867-183.467-102.4c-49.067,14.933-89.6,53.333-102.4,102.4
			L57.6,241.067l-32,27.733l213.333,234.667c8.533,8.533,23.467,8.533,32,0L484.267,268.8L450.133,241.067z M251.733,320
			c-32,2.133-61.867-21.333-64-53.333c2.133-32,32-55.467,64-53.333c32-2.133,61.867,21.333,64,53.333
			C313.6,298.667,283.733,322.133,251.733,320z"/>
	</g>
</g>
<g>
</g>
<g>
</g>
<g>
</g>
<g>
</g>
<g>
</g>
<g>
</g>
<g>
</g>
<g>
</g>
<g>
</g>
<g>
</g>
<g>
</g>
<g>
</g>
<g>
</g>
<g>
</g>
<g>
</g>
</svg>
