<svg height="512pt" viewBox="-26 0 512 512" width="512pt" xmlns="http://www.w3.org/2000/svg"><path d="m42.714844 204.800781h375.46875c18.851562 0 34.132812 15.28125 34.132812 34.132813v230.398437c0 18.851563-15.28125 34.132813-34.132812 34.132813h-375.46875c-18.851563 0-34.132813-15.28125-34.132813-34.132813v-230.398437c0-18.851563 15.28125-34.132813 34.132813-34.132813zm0 0" fill="#a4c2f7"/><path d="m452.316406 238.933594v34.132812h-443.734375v-34.132812c0-18.851563 15.28125-34.132813 34.132813-34.132813h375.46875c18.851562 0 34.132812 15.28125 34.132812 34.132813zm0 0" fill="#a4c2f7"/><path d="m42.714844 204.800781h349.867187c18.851563 0 34.132813 15.28125 34.132813 34.132813v230.398437c0 18.851563-15.28125 34.132813-34.132813 34.132813h-349.867187c-18.851563 0-34.132813-15.28125-34.132813-34.132813v-230.398437c0-18.851563 15.28125-34.132813 34.132813-34.132813zm0 0" fill="#e3e7f2"/><path d="m426.714844 238.933594v34.132812h-418.132813v-34.132812c0-18.851563 15.28125-34.132813 34.132813-34.132813h349.867187c18.851563 0 34.132813 15.28125 34.132813 34.132813zm0 0" fill="#e3e7f2"/><path d="m366.984375 179.199219v25.601562h-273.066406v-25.601562c.027343-9.414063 7.652343-17.039063 17.066406-17.066407h238.933594c9.414062.027344 17.039062 7.652344 17.066406 17.066407zm0 0" fill="#7fabfa"/><path d="m341.382812 179.199219v25.601562h-247.464843v-25.601562c.027343-9.414063 7.652343-17.039063 17.066406-17.066407h213.332031c9.414063.027344 17.039063 7.652344 17.066406 17.066407zm0 0" fill="#a4c2f7"/><path d="m264.582031 39.507812c45.796875 14.792969 76.824219 57.433594 76.800781 105.558594v17.066406h-221.867187v-17.066406c-.019531-48.125 31.003906-90.765625 76.800781-105.558594zm0 0" fill="#d4e1f4"/><path d="m204.851562 8.535156h51.199219c4.710938 0 8.53125 3.820313 8.53125 8.53125v93.867188c0 9.425781-7.640625 17.066406-17.066406 17.066406h-34.132813c-9.425781 0-17.066406-7.640625-17.066406-17.066406v-93.867188c0-4.710937 3.820313-8.53125 8.535156-8.53125zm0 0" fill="#a4c2f7"/><path d="m162.183594 119.464844h-39.679688c4.6875-19.855469 14.789063-38.019532 29.183594-52.476563zm0 0" fill="#a4c2f7"/><path d="m338.398438 119.464844h-39.683594l10.496094-52.476563c14.394531 14.457031 24.5 32.621094 29.1875 52.476563zm0 0" fill="#a4c2f7"/><path d="m119.515625 162.132812h-8.53125c-9.414063.027344-17.039063 7.652344-17.066406 17.066407v25.601562h25.597656v-25.601562c.027344-9.414063 7.652344-17.039063 17.066406-17.066407h8.535157v-17.066406c.003906-8.621094 1.015624-17.210937 3.011718-25.601562 0-.117188.066406-.238282.101563-.355469.34375-1.453125.769531-2.867187 1.167969-4.269531.351562-1.226563.683593-2.472656 1.078124-3.683594.441407-1.382812.9375-2.742188 1.433594-4.097656.453125-1.226563.902344-2.457032 1.390625-3.667969.484375-1.210937 1.089844-2.5625 1.707031-3.859375.613282-1.296875 1.125-2.4375 1.707032-3.632812.578125-1.195313 1.21875-2.441407 1.867187-3.644532.648438-1.203125 1.332031-2.355468 2.023438-3.523437.691406-1.171875 1.382812-2.347657 2.117187-3.492188.730469-1.140625 1.441406-2.140625 2.183594-3.199219.742188-1.058593 1.601562-2.363281 2.457031-3.5.511719-.679687 1.066407-1.320312 1.59375-1.996093 13.582031-17.332031 32.019531-30.222657 52.960938-37.035157v-22.441406c0-4.710937 3.820312-8.53125 8.53125-8.53125h-25.597657c-4.714843 0-8.535156 3.820313-8.535156 8.53125v22.441406c-20.953125 6.796876-39.410156 19.679688-53.007812 37.011719-.53125.671875-1.085938 1.3125-1.597656 1.996094-.851563 1.132813-1.644532 2.320313-2.457032 3.5-.808594 1.175781-1.484375 2.113281-2.183594 3.199219-.699218 1.082031-1.425781 2.320312-2.117187 3.488281-.691406 1.171875-1.375 2.339844-2.023437 3.523437-.648438 1.1875-1.261719 2.417969-1.867188 3.644532-.605469 1.230468-1.167969 2.40625-1.707031 3.636718-.539063 1.226563-1.136719 2.558594-1.707031 3.855469-.570313 1.296875-.9375 2.441407-1.390626 3.671875-.496093 1.355469-.988281 2.710938-1.433593 4.09375-.390625 1.210938-.726563 2.457032-1.074219 3.6875-.402344 1.425782-.855469 2.839844-1.171875 4.265625 0 .121094-.074219.238281-.101563.359375-1.980468 8.398438-2.972656 16.996094-2.960937 25.625zm0 0" fill="#fff"/><path d="m8.582031 238.933594v230.398437c0 18.851563 15.28125 34.132813 34.132813 34.132813h25.601562c-18.851562 0-34.132812-15.28125-34.132812-34.132813v-230.398437c0-18.851563 15.28125-34.132813 34.132812-34.132813h-25.601562c-18.851563 0-34.132813 15.28125-34.132813 34.132813zm0 0" fill="#fff"/><path d="m.0507812 469.332031v-230.398437h17.0664068v230.398437zm0 0" fill="#fff"/><g fill="#428dff"><path d="m.0507812 469.332031c.0273438 23.554688 19.1132808 42.640625 42.6640628 42.667969h375.46875c23.550781-.027344 42.636718-19.113281 42.667968-42.667969v-230.398437c-.03125-23.550782-19.117187-42.640625-42.667968-42.667969h-42.667969v-17.066406c0-14.136719-11.460937-25.597657-25.597656-25.597657v-8.535156c.117187-49.535156-30.476563-93.960937-76.800781-111.511718v-16.488282c0-9.425781-7.640626-17.066406-17.066407-17.066406h-51.199219c-9.425781 0-17.066406 7.640625-17.066406 17.066406v16.488282c-46.324218 17.550781-76.921875 61.976562-76.800781 111.511718v8.535156c-14.140625 0-25.601563 11.460938-25.601563 25.597657v17.066406h-42.667968c-23.550782.027344-42.636719 19.117187-42.6640628 42.667969v128c0 4.710937 3.8203128 8.53125 8.5312498 8.53125 4.714844 0 8.535157-3.820313 8.535157-8.53125v-85.332032h426.667968v187.730469c0 14.140625-11.464844 25.601563-25.601562 25.601563h-375.46875c-14.136719 0-25.597656-11.460938-25.597656-25.601563v-34.132812c0-4.710938-3.820313-8.53125-8.535157-8.53125-4.710937 0-8.5312498 3.820312-8.5312498 8.53125zm313.1718748-384.757812c5.855469 8.066406 10.496094 16.945312 13.773438 26.359375h-18.203125zm-108.371094-67.507813h51.199219v93.867188c0 4.710937-3.820312 8.53125-8.535156 8.53125h-34.132813c-4.710937 0-8.53125-3.820313-8.53125-8.53125zm-52.746093 93.867188h-18.203125c3.289062-9.414063 7.945312-18.296875 13.816406-26.359375zm-24.054688 34.132812c.003907-5.71875.484375-11.425781 1.433594-17.066406h32.699219c2.507812 0 4.890625-1.105469 6.511718-3.019531 1.621094-1.917969 2.316407-4.449219 1.902344-6.921875l-8.253906-49.492188c7.609375-6.746094 16.183594-12.308594 25.441406-16.511718v58.878906c0 14.136718 11.460938 25.601562 25.597656 25.601562h34.132813c14.140625 0 25.601563-11.464844 25.601563-25.601562v-58.878906c9.253906 4.199218 17.828124 9.761718 25.4375 16.503906l-8.253907 49.492187c-.414062 2.476563.28125 5.007813 1.902344 6.925781 1.621094 1.917969 4.003906 3.023438 6.511719 3.023438h32.703125c.945312 5.640625 1.425781 11.347656 1.433593 17.066406v8.535156h-204.800781zm-25.601562 34.132813c0-4.710938 3.820312-8.53125 8.535156-8.53125h238.933594c4.710937 0 8.53125 3.820312 8.53125 8.53125v17.066406h-256zm-85.332031 85.335937v-25.601562c0-14.140625 11.460937-25.601563 25.597656-25.601563h375.46875c14.136718 0 25.601562 11.460938 25.601562 25.601563v25.601562zm0 0"/><path d="m5.339844 408.917969c.484375.246093 1.003906.417969 1.535156.511719.566406.09375 1.136719.152343 1.707031.171874 2.261719-.035156 4.421875-.917968 6.058594-2.476562.773437-.816406 1.382813-1.769531 1.792969-2.816406 1.289062-3.183594.585937-6.824219-1.792969-9.300782-.816406-.769531-1.769531-1.378906-2.816406-1.792968-1.023438-.4375-2.125-.667969-3.242188-.679688-3.464843-.023437-6.601562 2.058594-7.929687 5.257813-1.328125 3.203125-.589844 6.890625 1.871094 9.332031l1.28125 1.023438c.476562.324218.992187.582031 1.535156.769531zm0 0"/><path d="m59.101562 235.691406c-.171874-.523437-.429687-1.015625-.769531-1.453125-.339843-.511719-.683593-.9375-1.023437-1.363281l-1.28125-1.023438c-.472656-.324218-.992188-.582031-1.535156-.769531-.484376-.246093-1-.417969-1.535157-.511719-2.515625-.535156-5.136719.097657-7.128906 1.726563-1.988281 1.625-3.132813 4.066406-3.113281 6.636719.015625 1.113281.246094 2.214844.683594 3.242187.433593 1.035157 1.039062 1.984375 1.792968 2.816407 1.636719 1.558593 3.800782 2.441406 6.058594 2.472656.570312-.011719 1.144531-.070313 1.707031-.167969.535157-.09375 1.050781-.265625 1.535157-.511719.542968-.1875 1.0625-.445312 1.535156-.769531l1.28125-1.023437c.753906-.832032 1.359375-1.78125 1.792968-2.816407.476563-1.011719.710938-2.121093.683594-3.242187-.015625-.574219-.074218-1.144532-.171875-1.707032-.09375-.535156-.265625-1.050781-.511719-1.535156zm0 0"/><path d="m93.234375 235.691406c-.171875-.523437-.429687-1.015625-.769531-1.453125-.339844-.511719-.679688-.9375-1.023438-1.363281l-1.28125-1.023438c-.472656-.324218-.992187-.582031-1.535156-.769531-.484375-.246093-1-.417969-1.535156-.511719-2.515625-.535156-5.136719.097657-7.125 1.726563-1.992188 1.625-3.136719 4.066406-3.113282 6.636719.011719 1.113281.242188 2.214844.679688 3.242187.433594 1.035157 1.039062 1.984375 1.792969 2.816407 1.636719 1.558593 3.800781 2.441406 6.058593 2.472656.574219-.011719 1.144532-.070313 1.707032-.167969.535156-.09375 1.050781-.265625 1.535156-.511719.542969-.1875 1.0625-.445312 1.535156-.769531l1.28125-1.023437c.753906-.832032 1.359375-1.78125 1.792969-2.816407.476563-1.011719.710937-2.121093.683594-3.242187-.015625-.574219-.074219-1.144532-.171875-1.707032-.09375-.535156-.265625-1.050781-.511719-1.535156zm0 0"/><path d="m127.367188 235.691406c-.167969-.523437-.429688-1.015625-.769532-1.453125-.339844-.511719-.679687-.9375-1.023437-1.363281l-1.277344-1.023438c-.476563-.324218-.992187-.582031-1.539063-.769531-.480468-.246093-1-.417969-1.535156-.511719-2.511718-.535156-5.136718.097657-7.125 1.726563-1.992187 1.625-3.136718 4.066406-3.113281 6.636719.011719 1.113281.246094 2.214844.679687 3.242187.433594 1.035157 1.039063 1.984375 1.792969 2.816407 1.636719 1.558593 3.800781 2.441406 6.058594 2.472656.574219-.011719 1.144531-.070313 1.707031-.167969.535156-.09375 1.054688-.265625 1.535156-.511719.546876-.1875 1.0625-.445312 1.539063-.769531l1.277344-1.023437c.753906-.832032 1.359375-1.78125 1.792969-2.816407.476562-1.011719.710937-2.121093.683593-3.242187-.015625-.574219-.074219-1.144532-.171875-1.707032-.09375-.535156-.265625-1.050781-.511718-1.535156zm0 0"/><path d="m160.921875 320.203125c1.800781-2.59375 2.019531-5.972656.570313-8.777344-1.449219-2.808593-4.332032-4.582031-7.492188-4.617187-3.15625-.035156-6.078125 1.679687-7.585938 4.453125l-68.265624 110.933593c-1.617188 2.628907-1.691407 5.925782-.191407 8.621094 1.5 2.695313 4.339844 4.371094 7.425781 4.382813h51.199219v17.066406c0 4.714844 3.820313 8.535156 8.535157 8.535156 4.710937 0 8.53125-3.820312 8.53125-8.535156v-17.066406h8.535156c4.710937 0 8.53125-3.820313 8.53125-8.53125 0-4.714844-3.820313-8.535157-8.53125-8.535157h-8.535156v-17.066406c0-4.710937-3.820313-8.53125-8.53125-8.53125-4.714844 0-8.535157 3.820313-8.535157 8.53125v17.066406h-35.925781zm0 0"/><path d="m374.253906 320.203125c2.167969-3.980469.839844-8.960937-3.019531-11.339844-3.855469-2.378906-8.902344-1.328125-11.488281 2.398438l-68.265625 110.933593c-1.617188 2.628907-1.6875 5.925782-.1875 8.621094 1.5 2.695313 4.339843 4.371094 7.421875 4.382813h51.203125v17.066406c0 4.714844 3.820312 8.535156 8.53125 8.535156 4.714843 0 8.535156-3.820312 8.535156-8.535156v-17.066406h8.53125c4.714844 0 8.535156-3.820313 8.535156-8.53125 0-4.714844-3.820312-8.535157-8.535156-8.535157h-8.53125v-17.066406c0-4.710937-3.820313-8.53125-8.535156-8.53125-4.710938 0-8.53125 3.820313-8.53125 8.53125v17.066406h-35.925781zm0 0"/><path d="m247.515625 460.800781c14.140625 0 25.601563-11.460937 25.601563-25.601562v-102.398438c0-14.140625-11.460938-25.601562-25.601563-25.601562h-34.132813c-14.136718 0-25.597656 11.460937-25.597656 25.601562v102.398438c0 14.140625 11.460938 25.601562 25.597656 25.601562zm-42.664063-25.601562v-102.398438c0-4.714843 3.820313-8.535156 8.53125-8.535156h34.132813c4.714844 0 8.535156 3.820313 8.535156 8.535156v102.398438c0 4.714843-3.820312 8.535156-8.535156 8.535156h-34.132813c-4.710937 0-8.53125-3.820313-8.53125-8.535156zm0 0"/></g></svg>