<svg height="512pt" viewBox="0 -47 512 512" width="512pt" xmlns="http://www.w3.org/2000/svg"><path d="m503.464844 209.066406c0 110.761719-110.761719 200.535156-247.464844 200.535156-4.265625 0-8.535156-.085937-12.714844-.257812h-.171875c-130.730469-5.460938-234.578125-93.011719-234.578125-200.277344 0-51.371094 26.964844-66.304687 62.632813-68.691406 28.246093-1.964844 61.953125 3.839844 91.902343 5.460938 23.210938 1.277343 44.203126.085937 58.796876-9.300782 41.128906-26.457031-151.382813-122.710937 19.285156-127.746094 4.691406-.171874 9.640625-.253906 14.847656-.253906 136.703125 0 247.464844 89.769532 247.464844 200.53125zm0 0" fill="#a4c2f7"/><path d="m477.867188 209.066406c0 107.265625-103.851563 194.816406-234.582032 200.277344h-.171875c-130.730469-5.460938-234.578125-93.011719-234.578125-200.277344 0-51.371094 26.964844-66.304687 62.632813-68.691406 30.890625 1.535156 64.683593 7.507812 91.902343 5.460938 23.210938 1.277343 44.203126.085937 58.796876-9.300782 41.128906-26.457031-151.382813-122.710937 19.285156-127.746094 131.753906 4.523438 236.714844 92.417969 236.714844 200.277344zm0 0" fill="#e3e7f2"/><path d="m145.066406 226.132812c0 25.921876-21.011718 46.933594-46.933594 46.933594-25.921874 0-46.933593-21.011718-46.933593-46.933594 0-25.921874 21.011719-46.933593 46.933593-46.933593 25.921876 0 46.933594 21.011719 46.933594 46.933593zm0 0" fill="#a4c2f7"/><path d="m230.398438 315.734375c0 23.5625-19.101563 42.664063-42.664063 42.664063-23.566406 0-42.667969-19.101563-42.667969-42.664063 0-23.566406 19.101563-42.667969 42.667969-42.667969 23.5625 0 42.664063 19.101563 42.664063 42.667969zm0 0" fill="#a4c2f7"/><path d="m341.332031 328.535156c0 21.207032-17.191406 38.398438-38.398437 38.398438-21.207032 0-38.398438-17.191406-38.398438-38.398438 0-21.210937 17.191406-38.402344 38.398438-38.402344 21.207031 0 38.398437 17.191407 38.398437 38.402344zm0 0" fill="#a4c2f7"/><path d="m426.667969 285.867188c0 16.496093-13.375 29.867187-29.867188 29.867187-16.496093 0-29.867187-13.371094-29.867187-29.867187 0-16.496094 13.371094-29.867188 29.867187-29.867188 16.492188 0 29.867188 13.371094 29.867188 29.867188zm0 0" fill="#a4c2f7"/><path d="m469.332031 213.332031c0 14.140625-11.460937 25.601563-25.597656 25.601563-14.140625 0-25.601563-11.460938-25.601563-25.601563 0-14.136719 11.460938-25.597656 25.601563-25.597656 14.136719 0 25.597656 11.460937 25.597656 25.597656zm0 0" fill="#a4c2f7"/><path d="m443.734375 136.535156c0 9.425782-7.640625 17.066406-17.066406 17.066406s-17.066407-7.640624-17.066407-17.066406c0-9.425781 7.640626-17.070312 17.066407-17.070312s17.066406 7.644531 17.066406 17.070312zm0 0" fill="#a4c2f7"/><path d="m266.753906 8.789062h.9375c-3.875-.160156-7.765625-.253906-11.691406-.253906-5.207031 0-10.15625.082032-14.847656.253906-170.667969 5.035157 21.84375 101.289063-19.285156 127.746094-10.046876 5.789063-21.375 8.988282-32.964844 9.308594 23.117187 1.261719 44.058594.078125 58.5625-9.308594 41.132812-26.457031-151.378906-122.710937 19.289062-127.746094zm0 0" fill="#fff"/><path d="m243.113281 409.34375h.171875c4.179688.171875 8.449219.257812 12.714844.257812s8.464844-.085937 12.664062-.257812c-130.707031-5.488281-234.53125-93.03125-234.53125-200.277344 0-51.371094 26.964844-66.304687 62.636719-68.691406h.074219c-8.550781-.507812-17.125-.507812-25.675781 0-35.667969 2.386719-62.632813 17.320312-62.632813 68.691406 0 107.265625 103.847656 194.816406 234.578125 200.277344zm0 0" fill="#fff"/><path d="m17.066406 209.066406c.488282 35.4375 12.335938 69.785156 33.800782 97.988282 23.738281 30.96875 55.050781 55.304687 90.921874 70.65625 36.148438 15.269531 74.96875 23.210937 114.210938 23.355468v17.066406c-41.601562-.144531-82.753906-8.574218-121.0625-24.796874-38.597656-16.539063-72.273438-42.757813-97.773438-76.117188-23.648437-31.140625-36.675781-69.050781-37.164062-108.152344zm0 0" fill="#fff"/><g fill="#428dff"><path d="m256 0c-56.371094 0-85.085938 7.988281-93.097656 25.890625-8.988282 20.070313 11.5 42.992187 31.316406 65.167969 10.949219 12.246094 25.941406 29.015625 24.992188 35.996094 0 .375-.152344 1.132812-1.960938 2.292968-18.621094 11.949219-52.632812 8.585938-85.519531 5.324219-41.679688-4.113281-84.796875-8.378906-110.464844 14.859375-14.3125 12.960938-21.265625 32.433594-21.265625 59.535156l1.109375 17.921875c.613281 5.945313 1.570313 11.851563 2.867187 17.6875.34375 2.289063 1.652344 4.316407 3.589844 5.574219 1.941406 1.257812 4.328125 1.625 6.554688 1.003906 4.398437-1.253906 7.195312-5.558594 6.554687-10.085937-1.164062-5.261719-2.019531-10.585938-2.558593-15.949219l-1.050782-16.152344c0-22.007812 5.121094-37.351562 15.652344-46.882812 20.085938-18.183594 59.355469-14.292969 97.320312-10.527344 37.4375 3.710938 72.816407 7.207031 96.425782-7.9375 5.222656-3.082031 8.769531-8.363281 9.644531-14.363281 2.011719-14.761719-12.449219-30.941407-29.183594-49.671875-13.894531-15.546875-32.929687-36.847656-28.460937-46.820313 2.144531-4.703125 13.945312-15.796875 77.535156-15.796875 131.746094 0 238.933594 86.136719 238.933594 192 0 105.863282-107.1875 192-238.933594 192-39.242188-.144531-78.0625-8.085937-114.210938-23.355468-35.871093-15.351563-67.183593-39.6875-90.921874-70.65625l-4.90625-6.519532c-2.515626-3.816406-7.617188-4.929687-11.496094-2.507812-1.964844 1.238281-3.351563 3.210937-3.84375 5.480468-.496094 2.269532-.0625 4.640626 1.207031 6.585938l5.335937 7.125c25.5 33.359375 59.175782 59.578125 97.773438 76.117188 38.308594 16.222656 79.460938 24.652343 121.0625 24.796874 141.160156 0 256-93.78125 256-209.066406s-114.839844-209.066406-256-209.066406zm0 0"/><path d="m98.132812 170.667969c-30.632812 0-55.464843 24.832031-55.464843 55.464843 0 30.632813 24.832031 55.46875 55.464843 55.46875 30.632813 0 55.46875-24.835937 55.46875-55.46875-.039062-30.617187-24.851562-55.429687-55.46875-55.464843zm0 93.867187c-21.207031 0-38.398437-17.195312-38.398437-38.402344 0-21.207031 17.191406-38.398437 38.398437-38.398437 21.207032 0 38.402344 17.191406 38.402344 38.398437-.023437 21.199219-17.203125 38.378907-38.402344 38.402344zm0 0"/><path d="m187.734375 366.933594c28.277344 0 51.199219-22.921875 51.199219-51.199219s-22.921875-51.199219-51.199219-51.199219-51.199219 22.921875-51.199219 51.199219c.027344 28.265625 22.933594 51.171875 51.199219 51.199219zm0-85.332032c18.851563 0 34.132813 15.28125 34.132813 34.132813s-15.28125 34.132813-34.132813 34.132813-34.132813-15.28125-34.132813-34.132813 15.28125-34.132813 34.132813-34.132813zm0 0"/><path d="m302.933594 281.601562c-25.921875 0-46.933594 21.011719-46.933594 46.933594 0 25.917969 21.011719 46.929688 46.933594 46.929688s46.933594-21.011719 46.933594-46.929688c-.027344-25.910156-21.023438-46.90625-46.933594-46.933594zm0 76.796876c-16.496094 0-29.867188-13.371094-29.867188-29.863282 0-16.496094 13.371094-29.867187 29.867188-29.867187s29.867187 13.371093 29.867187 29.867187c0 16.492188-13.371093 29.863282-29.867187 29.863282zm0 0"/><path d="m358.398438 285.867188c0 21.207031 17.195312 38.398437 38.402343 38.398437s38.398438-17.191406 38.398438-38.398437c0-21.207032-17.191407-38.402344-38.398438-38.402344-21.199219.023437-38.378906 17.203125-38.402343 38.402344zm59.734374 0c0 11.78125-9.550781 21.332031-21.332031 21.332031s-21.335937-9.550781-21.335937-21.332031 9.554687-21.332032 21.335937-21.332032 21.332031 9.550782 21.332031 21.332032zm0 0"/><path d="m409.601562 213.332031c0 18.851563 15.28125 34.132813 34.132813 34.132813s34.132813-15.28125 34.132813-34.132813c0-18.851562-15.28125-34.132812-34.132813-34.132812s-34.132813 15.28125-34.132813 34.132812zm51.199219 0c0 9.425781-7.640625 17.066407-17.066406 17.066407s-17.066406-7.640626-17.066406-17.066407 7.640625-17.066406 17.066406-17.066406 17.066406 7.640625 17.066406 17.066406zm0 0"/><path d="m426.667969 110.933594c-14.140625 0-25.601563 11.460937-25.601563 25.601562 0 14.136719 11.460938 25.597656 25.601563 25.597656 14.136719 0 25.597656-11.460937 25.597656-25.597656 0-14.140625-11.460937-25.601562-25.597656-25.601562zm0 34.132812c-4.714844 0-8.535157-3.820312-8.535157-8.53125 0-4.714844 3.820313-8.535156 8.535157-8.535156 4.710937 0 8.53125 3.820312 8.53125 8.535156 0 4.710938-3.820313 8.53125-8.53125 8.53125zm0 0"/><path d="m336.613281 52.097656c-33.433593-16.25-70.964843-22.125-107.765625-16.871094-4.636718.855469-7.699218 5.304688-6.84375 9.941407.855469 4.632812 5.304688 7.699219 9.941406 6.84375 33.152344-4.425781 66.875.914062 97.039063 15.359375 4.21875 2.105468 9.347656.394531 11.453125-3.824219s.394531-9.34375-3.824219-11.449219zm0 0"/><path d="m385.152344 77.695312-17.066406-8.53125c-4.21875-2.109374-9.347657-.402343-11.457032 3.816407s-.398437 9.347656 3.820313 11.457031l17.066406 8.53125c1.183594.589844 2.488281.894531 3.8125.898438 3.964844.007812 7.410156-2.714844 8.320313-6.570313.914062-3.855469-.949219-7.832031-4.496094-9.601563zm0 0"/><path d="m19.6875 283.46875c1.050781.375 2.167969.53125 3.285156.453125 1.113282-.042969 2.203125-.3125 3.207032-.792969 2.011718-1.042968 3.585937-2.757812 4.453124-4.847656.765626-2.046875.71875-4.304688-.132812-6.316406-.96875-1.980469-2.640625-3.527344-4.6875-4.34375l-1.601562-.441406c-.5625-.121094-1.136719-.175782-1.707032-.164063-.53125-.054687-1.066406-.03125-1.589844.070313-.558593.105468-1.105468.253906-1.644531.433593-2.128906.804688-3.84375 2.4375-4.753906 4.523438-.378906 1.070312-.535156 2.203125-.46875 3.335937.183594 3.550782 2.371094 6.6875 5.640625 8.089844zm0 0"/></g></svg>