<svg height="512pt" viewBox="0 -25 512 512" width="512pt" xmlns="http://www.w3.org/2000/svg"><path d="m448 349.867188h42.667969c7.066406 0 12.796875 5.730468 12.796875 12.800781v42.664062c0 7.070313-5.730469 12.800781-12.796875 12.800781h-42.667969c-7.070312 0-12.800781-5.730468-12.800781-12.800781v-42.664062c0-7.070313 5.730469-12.800781 12.800781-12.800781zm0 0" fill="#a4c2f7"/><path d="m448 8.535156h42.667969c7.066406 0 12.796875 5.730469 12.796875 12.796875v42.667969c0 7.070312-5.730469 12.800781-12.796875 12.800781h-42.667969c-7.070312 0-12.800781-5.730469-12.800781-12.800781v-42.667969c0-7.066406 5.730469-12.796875 12.800781-12.796875zm0 0" fill="#a4c2f7"/><g fill="#e3e7f2"><path d="m21.332031 8.535156h42.667969c7.070312 0 12.800781 5.730469 12.800781 12.796875v42.667969c0 7.070312-5.730469 12.800781-12.800781 12.800781h-42.667969c-7.066406 0-12.796875-5.730469-12.796875-12.800781v-42.667969c0-7.066406 5.730469-12.796875 12.796875-12.796875zm0 0"/><path d="m21.332031 179.199219h42.667969c7.070312 0 12.800781 5.730469 12.800781 12.800781v42.667969c0 7.066406-5.730469 12.796875-12.800781 12.796875h-42.667969c-7.066406 0-12.796875-5.730469-12.796875-12.796875v-42.667969c0-7.070312 5.730469-12.800781 12.796875-12.800781zm0 0"/><path d="m234.667969 8.535156h42.664062c7.070313 0 12.800781 5.730469 12.800781 12.796875v42.667969c0 7.070312-5.730468 12.800781-12.800781 12.800781h-42.664062c-7.070313 0-12.800781-5.730469-12.800781-12.800781v-42.667969c0-7.066406 5.730468-12.796875 12.800781-12.796875zm0 0"/><path d="m234.667969 179.199219h42.664062c7.070313 0 12.800781 5.730469 12.800781 12.800781v42.667969c0 7.066406-5.730468 12.796875-12.800781 12.796875h-42.664062c-7.070313 0-12.800781-5.730469-12.800781-12.796875v-42.667969c0-7.070312 5.730468-12.800781 12.800781-12.800781zm0 0"/></g><path d="m448 179.199219h42.667969c7.066406 0 12.796875 5.730469 12.796875 12.800781v42.667969c0 7.066406-5.730469 12.796875-12.796875 12.796875h-42.667969c-7.070312 0-12.800781-5.730469-12.800781-12.796875v-42.667969c0-7.070312 5.730469-12.800781 12.800781-12.800781zm0 0" fill="#a4c2f7"/><path d="m448 349.867188h17.066406c7.070313 0 12.800782 5.730468 12.800782 12.800781v42.664062c0 7.070313-5.730469 12.800781-12.800782 12.800781h-17.066406c-7.070312 0-12.800781-5.730468-12.800781-12.800781v-42.664062c0-7.070313 5.730469-12.800781 12.800781-12.800781zm0 0" fill="#e3e7f2"/><path d="m448 8.535156h17.066406c7.070313 0 12.800782 5.730469 12.800782 12.796875v42.667969c0 7.070312-5.730469 12.800781-12.800782 12.800781h-17.066406c-7.070312 0-12.800781-5.730469-12.800781-12.800781v-42.667969c0-7.066406 5.730469-12.796875 12.800781-12.796875zm0 0" fill="#e3e7f2"/><path d="m448 179.199219h17.066406c7.070313 0 12.800782 5.730469 12.800782 12.800781v42.667969c0 7.066406-5.730469 12.796875-12.800782 12.796875h-17.066406c-7.070312 0-12.800781-5.730469-12.800781-12.796875v-42.667969c0-7.070312 5.730469-12.800781 12.800781-12.800781zm0 0" fill="#e3e7f2"/><path d="m234.667969 349.867188h42.664062c7.070313 0 12.800781 5.730468 12.800781 12.800781v42.664062c0 7.070313-5.730468 12.800781-12.800781 12.800781h-42.664062c-7.070313 0-12.800781-5.730468-12.800781-12.800781v-42.664062c0-7.070313 5.730468-12.800781 12.800781-12.800781zm0 0" fill="#e3e7f2"/><path d="m179.199219 247.039062v193.195313c.027343 5.394531-3.332031 10.226563-8.398438 12.078125-5.066406 1.855469-10.75.335938-14.214843-3.800781l-2.644532-3.070313-42.835937-51.203125c-1.347657-1.699219-3.152344-2.972656-5.207031-3.667969-1.757813-.710937-3.65625-1.003906-5.546876-.851562l-17.492187 1.277344-53.503906 4.097656c-2.324219.214844-4.660157-.230469-6.742188-1.28125-3.679687-1.867188-6.234375-5.394531-6.859375-9.472656s.753906-8.207032 3.703125-11.09375l134.3125-131.753906 3.671875-3.582032c3.679688-3.605468 9.160156-4.65625 13.910156-2.664062 4.75 1.996094 7.84375 6.640625 7.847657 11.792968zm0 0" fill="#a4c2f7"/><path d="m155.050781 247.039062v193.195313c.003907 1.792969-.375 3.570313-1.109375 5.207031l-42.835937-51.203125c-1.347657-1.699219-3.152344-2.972656-5.207031-3.667969-1.757813-.710937-3.65625-1.003906-5.546876-.851562l-17.492187 1.277344c-.34375-.167969-.683594-.253906-1.109375-.425782-1.757812-.710937-3.65625-1.003906-5.546875-.851562l-53.589844 4.09375c-3.679687-1.867188-6.234375-5.394531-6.859375-9.472656s.753906-8.207032 3.703125-11.09375l134.3125-131.753906c.875 1.71875 1.3125 3.621093 1.28125 5.546874zm0 0" fill="#e3e7f2"/><path d="m153.941406 445.441406 2.644532 3.070313c2.992187 3.5625 7.679687 5.222656 12.242187 4.335937 4.566406-.886718 8.292969-4.179687 9.730469-8.601562l-41.855469-50.007813c-1.34375-1.699219-3.152344-2.972656-5.203125-3.667969-1.757812-.710937-3.65625-1.003906-5.546875-.851562l-17.496094 1.277344-1.492187.113281c1.605468.703125 3.023437 1.777344 4.140625 3.128906zm0 0" fill="#fff"/><path d="m8.535156 64c0 7.070312 5.730469 12.800781 12.796875 12.800781h25.601563c-7.070313 0-12.800782-5.730469-12.800782-12.800781v-42.667969c0-7.066406 5.730469-12.796875 12.800782-12.796875h-25.601563c-7.066406 0-12.796875 5.730469-12.796875 12.796875zm0 0" fill="#fff"/><path d="m8.535156 234.667969c0 7.066406 5.730469 12.796875 12.796875 12.796875h25.601563c-7.070313 0-12.800782-5.730469-12.800782-12.796875v-42.667969c0-7.070312 5.730469-12.800781 12.800782-12.800781h-25.601563c-7.066406 0-12.796875 5.730469-12.796875 12.800781zm0 0" fill="#fff"/><path d="m22.613281 393.8125c2.082031 1.050781 4.417969 1.496094 6.742188 1.28125l18.636719-1.425781c-3.59375-1.917969-6.058594-5.433594-6.636719-9.46875-.578125-4.03125.792969-8.097657 3.699219-10.953125l133.292968-130.730469c-1.539062-4.019531-4.996094-7-9.199218-7.929687-4.207032-.925782-8.59375.320312-11.683594 3.324218l-3.667969 3.582032-134.339844 131.753906c-2.949219 2.886718-4.328125 7.015625-3.703125 11.09375s3.179688 7.605468 6.859375 9.472656zm0 0" fill="#fff"/><path d="m490.667969 85.332031c5.65625 0 11.082031-2.246093 15.082031-6.246093 4.003906-4 6.25-9.429688 6.25-15.085938v-42.667969c0-11.78125-9.550781-21.332031-21.332031-21.332031h-42.667969c-11.78125 0-21.332031 9.550781-21.332031 21.332031v12.800781h-128v-12.800781c0-11.78125-9.550781-21.332031-21.335938-21.332031h-42.664062c-11.785157 0-21.335938 9.550781-21.335938 21.332031v12.800781h-128v-12.800781c0-11.78125-9.550781-21.332031-21.332031-21.332031h-42.667969c-11.78125 0-21.332031 9.550781-21.332031 21.332031v42.667969c0 11.78125 9.550781 21.332031 21.332031 21.332031h12.800781v85.335938h-12.800781c-11.78125 0-21.332031 9.550781-21.332031 21.332031v42.667969c0 11.78125 9.550781 21.332031 21.332031 21.332031h12.800781v90.847656l-20.675781 20.265625c-6.40625 6.273438-8.207031 15.882813-4.503906 24.050781 3.703125 8.167969 12.117187 13.148438 21.058594 12.460938l70.964843-5.382812c1.371094-.105469 2.707032.457031 3.589844 1.511718l45.492188 54.21875c3.996094 4.84375 9.9375 7.65625 16.214844 7.679688 2.523437 0 5.027343-.445313 7.398437-1.3125 8.488281-3.015625 14.132813-11.078125 14.0625-20.089844v-47.714844h25.597656v12.796875c0 11.785157 9.550781 21.335938 21.335938 21.335938h42.664062c11.785157 0 21.335938-9.550781 21.335938-21.335938v-12.796875h128v12.796875c0 11.785157 9.550781 21.335938 21.332031 21.335938h42.667969c11.78125 0 21.332031-9.550781 21.332031-21.335938v-42.664062c0-11.785157-9.550781-21.335938-21.332031-21.335938h-12.800781v-85.332031h12.800781c11.78125 0 21.332031-9.550781 21.332031-21.332031v-42.667969c0-11.78125-9.550781-21.332031-21.332031-21.332031h-12.800781v-85.335938zm-46.933594-64c0-2.355469 1.910156-4.265625 4.265625-4.265625h42.667969c2.355469 0 4.265625 1.910156 4.265625 4.265625v42.667969c0 2.355469-1.910156 4.265625-4.265625 4.265625h-42.667969c-2.355469 0-4.265625-1.910156-4.265625-4.265625zm-213.335937 0c0-2.355469 1.910156-4.265625 4.269531-4.265625h42.664062c2.359375 0 4.269531 1.910156 4.269531 4.265625v42.667969c0 2.355469-1.910156 4.265625-4.269531 4.265625h-42.664062c-2.359375 0-4.269531-1.910156-4.269531-4.265625zm-213.332032 42.667969v-42.667969c0-2.355469 1.910156-4.265625 4.265625-4.265625h42.667969c2.355469 0 4.265625 1.910156 4.265625 4.265625v42.667969c0 2.355469-1.910156 4.265625-4.265625 4.265625h-42.667969c-2.355469 0-4.265625-1.910156-4.265625-4.265625zm0 170.667969v-42.667969c0-2.355469 1.910156-4.265625 4.265625-4.265625h42.667969c2.355469 0 4.265625 1.910156 4.265625 4.265625v42.667969c0 2.355469-1.910156 4.265625-4.265625 4.265625h-42.667969c-2.355469 0-4.265625-1.910156-4.265625-4.265625zm153.601563 205.582031c-.003907 1.792969-1.125 3.394531-2.808594 4.007812-1.6875.613282-3.574219.105469-4.726563-1.265624l-45.492187-54.214844c-4.0625-4.824219-10.042969-7.613282-16.351563-7.617188-.535156 0-1.066406 0-1.601562.058594l-70.972656 5.382812c-1.789063.136719-3.46875-.863281-4.207032-2.496093-.738281-1.632813-.375-3.554688.90625-4.808594l137.992188-135.292969c1.222656-1.210937 3.058594-1.5625 4.644531-.898437 1.585938.667969 2.617188 2.222656 2.617188 3.941406zm110.933593-34.917969c0 2.359375-1.910156 4.269531-4.269531 4.269531h-42.664062c-2.359375 0-4.269531-1.910156-4.269531-4.269531v-42.664062c0-2.359375 1.910156-4.269531 4.269531-4.269531h42.664062c2.359375 0 4.269531 1.910156 4.269531 4.269531zm213.332032-42.664062v42.664062c0 2.359375-1.910156 4.269531-4.265625 4.269531h-42.667969c-2.355469 0-4.265625-1.910156-4.265625-4.269531v-42.664062c0-2.359375 1.910156-4.269531 4.265625-4.269531h42.667969c2.355469 0 4.265625 1.910156 4.265625 4.269531zm0-170.667969v42.667969c0 2.355469-1.910156 4.265625-4.265625 4.265625h-42.667969c-2.355469 0-4.265625-1.910156-4.265625-4.265625v-42.667969c0-2.355469 1.910156-4.265625 4.265625-4.265625h42.667969c2.355469 0 4.265625 1.910156 4.265625 4.265625zm-34.132813-21.332031h-12.800781c-11.78125 0-21.332031 9.550781-21.332031 21.332031v42.667969c0 11.78125 9.550781 21.332031 21.332031 21.332031h12.800781v85.332031h-12.800781c-11.78125 0-21.332031 9.550781-21.332031 21.335938v12.796875h-128v-12.796875c0-11.785157-9.550781-21.335938-21.335938-21.335938h-42.664062c-11.785157 0-21.335938 9.550781-21.335938 21.335938v12.796875h-25.597656v-128.417969c-.003906-8.585937-5.15625-16.339844-13.074219-19.664063-7.917968-3.328124-17.058594-1.578124-23.195312 4.433594l-100.265625 98.296875v-74.113281h12.800781c11.78125 0 21.332031-9.550781 21.332031-21.332031v-42.667969c0-11.78125-9.550781-21.332031-21.332031-21.332031h-12.800781v-85.335938h12.800781c5.65625 0 11.085938-2.246093 15.085938-6.246093s6.246093-9.429688 6.246093-15.085938v-12.800781h128v12.800781c0 11.78125 9.550781 21.332031 21.335938 21.332031h42.664062c5.660157 0 11.085938-2.246093 15.085938-6.246093s6.25-9.429688 6.25-15.085938v-12.800781h128v12.800781c0 11.78125 9.550781 21.332031 21.332031 21.332031h12.800781zm0 0" fill="#428dff"/><path d="m277.332031 170.667969h-42.664062c-11.785157 0-21.335938 9.550781-21.335938 21.332031v42.667969c0 11.78125 9.550781 21.332031 21.335938 21.332031h42.664062c11.785157 0 21.335938-9.550781 21.335938-21.332031v-42.667969c0-11.78125-9.550781-21.332031-21.335938-21.332031zm4.269531 64c0 2.355469-1.910156 4.265625-4.269531 4.265625h-42.664062c-2.359375 0-4.269531-1.910156-4.269531-4.265625v-42.667969c0-2.355469 1.910156-4.265625 4.269531-4.265625h42.664062c2.359375 0 4.269531 1.910156 4.269531 4.265625zm0 0" fill="#428dff"/></svg>