<?xml version="1.0" encoding="iso-8859-1"?>
<!-- Generator: Adobe Illustrator 16.0.0, SVG Export Plug-In . SVG Version: 6.00 Build 0)  -->
<!DOCTYPE svg PUBLIC "-//W3C//DTD SVG 1.1//EN" "http://www.w3.org/Graphics/SVG/1.1/DTD/svg11.dtd">
<svg version="1.1" id="Capa_1" xmlns="http://www.w3.org/2000/svg" xmlns:xlink="http://www.w3.org/1999/xlink" x="0px" y="0px"
	 width="267.574px" height="267.573px" viewBox="0 0 267.574 267.573" style="enable-background:new 0 0 267.574 267.573;"
	 xml:space="preserve">
<g>
	<g>
		<path d="M74.198,1.534H8.818C3.954,1.534,0,5.473,0,10.343v65.461c0,4.873,3.954,8.818,8.818,8.818h65.38
			c4.891,0,8.83-3.945,8.83-8.818V10.343C83.022,5.467,79.089,1.534,74.198,1.534z"/>
		<path d="M74.198,91.474H8.818c-4.864,0-8.818,3.939-8.818,8.81v65.477c0,4.869,3.954,8.814,8.818,8.814h65.38
			c4.891,0,8.83-3.945,8.83-8.814v-65.477C83.022,95.413,79.089,91.474,74.198,91.474z"/>
		<path d="M74.198,184.458H8.818c-4.864,0-8.818,3.939-8.818,8.81v65.482c0,4.869,3.954,8.814,8.818,8.814h65.38
			c4.891,0,8.83-3.945,8.83-8.814v-65.482C83.022,188.397,79.089,184.458,74.198,184.458z"/>
		<path d="M166.483,0.009h-65.395c-4.864,0-8.818,3.945-8.818,8.815v65.47c0,4.87,3.954,8.815,8.818,8.815h65.395
			c4.864,0,8.821-3.945,8.821-8.815V8.818C175.292,3.948,171.347,0.009,166.483,0.009z"/>
		<path d="M166.483,89.949h-65.395c-4.864,0-8.818,3.948-8.818,8.818v65.462c0,4.869,3.954,8.814,8.818,8.814h65.395
			c4.864,0,8.821-3.945,8.821-8.814V98.767C175.292,93.897,171.347,89.949,166.483,89.949z"/>
		<path d="M166.483,182.939h-65.395c-4.864,0-8.818,3.944-8.818,8.814v65.465c0,4.875,3.954,8.814,8.818,8.814h65.395
			c4.864,0,8.821-3.939,8.821-8.814v-65.465C175.292,186.884,171.347,182.939,166.483,182.939z"/>
		<path d="M258.747,0.015h-65.374c-4.864,0-8.821,3.948-8.821,8.818v65.461c0,4.876,3.957,8.815,8.821,8.815h65.38
			c4.864,0,8.821-3.939,8.821-8.815V8.833C267.562,3.954,263.611,0.015,258.747,0.015z"/>
		<path d="M258.747,89.967h-65.374c-4.864,0-8.821,3.942-8.821,8.818v65.461c0,4.87,3.957,8.809,8.821,8.809h65.38
			c4.864,0,8.821-3.938,8.821-8.809V98.785C267.562,93.909,263.611,89.967,258.747,89.967z"/>
		<path d="M258.747,182.945h-65.374c-4.864,0-8.821,3.945-8.821,8.82v65.465c0,4.869,3.957,8.809,8.821,8.809h65.38
			c4.864,0,8.821-3.939,8.821-8.809v-65.465C267.562,186.891,263.611,182.945,258.747,182.945z"/>
	</g>
</g>
<g>
</g>
<g>
</g>
<g>
</g>
<g>
</g>
<g>
</g>
<g>
</g>
<g>
</g>
<g>
</g>
<g>
</g>
<g>
</g>
<g>
</g>
<g>
</g>
<g>
</g>
<g>
</g>
<g>
</g>
</svg>
