<?xml version="1.0" encoding="iso-8859-1"?>
<!-- Generator: Adobe Illustrator 19.0.0, SVG Export Plug-In . SVG Version: 6.00 Build 0)  -->
<svg version="1.1" id="Capa_1" xmlns="http://www.w3.org/2000/svg" xmlns:xlink="http://www.w3.org/1999/xlink" x="0px" y="0px"
	 viewBox="0 0 477.867 477.867" style="enable-background:new 0 0 477.867 477.867;" xml:space="preserve">
<g>
	<g>
		<path d="M409.6,204.8V85.333c0-9.426-7.641-17.067-17.067-17.067H273.067C273.067,30.564,242.503,0,204.8,0
			s-68.267,30.564-68.267,68.267H17.067C7.641,68.267,0,75.908,0,85.333v121.89c5.561-1.537,11.297-2.351,17.067-2.423
			c37.703,0,68.267,30.564,68.267,68.267s-30.564,68.267-68.267,68.267C11.297,341.261,5.561,340.447,0,338.91V460.8
			c0,9.426,7.641,17.067,17.067,17.067h121.89c-1.537-5.561-2.351-11.297-2.423-17.067c0-37.703,30.564-68.267,68.267-68.267
			s68.267,30.564,68.267,68.267c-0.072,5.769-0.887,11.505-2.423,17.067h121.89c9.426,0,17.067-7.641,17.067-17.067V341.333
			c37.703,0,68.267-30.564,68.267-68.267S447.303,204.8,409.6,204.8z"/>
	</g>
</g>
<g>
</g>
<g>
</g>
<g>
</g>
<g>
</g>
<g>
</g>
<g>
</g>
<g>
</g>
<g>
</g>
<g>
</g>
<g>
</g>
<g>
</g>
<g>
</g>
<g>
</g>
<g>
</g>
<g>
</g>
</svg>
